SplineFontDB: 3.0
FontName: Untitled1
FullName: Untitled1
FamilyName: Untitled1
Weight: Medium
Copyright: Created with FontForge 2.0 (http://fontforge.sf.net)
UComments: "2011-11-7: Created." 
Version: 001.000
ItalicAngle: 0
UnderlinePosition: -100
UnderlineWidth: 50
Ascent: 800
Descent: 200
LayerCount: 2
Layer: 0 0 "Arri+AOgA-re"  1
Layer: 1 0 "Avant"  0
NeedsXUIDChange: 1
XUID: [1021 112 18547 8484]
OS2Version: 0
OS2_WeightWidthSlopeOnly: 0
OS2_UseTypoMetrics: 1
CreationTime: 1320655869
ModificationTime: 1320656457
OS2TypoAscent: 0
OS2TypoAOffset: 1
OS2TypoDescent: 0
OS2TypoDOffset: 1
OS2TypoLinegap: 0
OS2WinAscent: 0
OS2WinAOffset: 1
OS2WinDescent: 0
OS2WinDOffset: 1
HheadAscent: 0
HheadAOffset: 1
HheadDescent: 0
HheadDOffset: 1
OS2Vendor: 'PfEd'
DEI: 91125
Encoding: ISO8859-1
UnicodeInterp: none
NameList: Adobe Glyph List
DisplaySize: -24
AntiAlias: 1
FitToEm: 1
WinInfo: 0 50 22
BeginChars: 256 52

StartChar: A
Encoding: 65 65 0
Width: 38
VWidth: 0
Flags: W
HStem: -1.28125 2.04004<0.0210171 1.01953 29.264 34.0244 36.2637 38.945> 35.1318 2.0401<6.82455 18.4199>
VStem: 29.2637 9.6816<-0.288008 0.758456>
LayerCount: 2
Fore
SplineSet
1.01953 -1.09375 m 2
 0.457031 -1.09375 0.000976562 -0.638672 0 -0.0761719 c 0
 -0.000976562 0.487305 0.456055 0.947266 1.01953 0.947266 c 0
 1.21191 0.947266 1.40332 0.947266 1.5957 0.947266 c 2
 15.6816 32.4658 l 2
 15.9111 32.9805 16.5146 33.2109 17.0293 32.9814 c 0
 17.543 32.751 17.7734 32.1475 17.5439 31.6338 c 2
 3.83691 0.947266 l 1
 25.2812 0.996094 l 1
 19.9697 13.0918 l 2
 19.7432 13.6074 19.9775 14.209 20.4932 14.4355 c 0
 21.0088 14.6621 21.6104 14.4277 21.8369 13.9121 c 2
 27.7754 0.388672 l 2
 27.9131 0.0742188 27.8838 -0.313477 27.6963 -0.601562 c 0
 27.5088 -0.889648 27.1875 -1.04004 26.8438 -1.04102 c 2
 1.01953 -1.09375 l 2
37.9258 -1.28125 m 2
 30.2842 -1.28125 l 2
 29.7207 -1.28125 29.2637 -0.824219 29.2637 -0.261719 c 0
 29.2637 0.301758 29.7207 0.758789 30.2842 0.758789 c 2
 34.0244 0.758789 l 1
 18.4199 35.1318 l 1
 7.84473 35.1318 l 2
 7.28125 35.1318 6.82422 35.5879 6.82422 36.1514 c 0
 6.82422 36.7148 7.28125 37.1719 7.84473 37.1719 c 2
 19.0771 37.1719 l 2
 19.4775 37.1719 19.8408 36.9375 20.0059 36.5732 c 2
 36.2637 0.758789 l 1
 37.9258 0.758789 l 2
 38.4883 0.758789 38.9453 0.301758 38.9453 -0.261719 c 0
 38.9453 -0.824219 38.4883 -1.28125 37.9258 -1.28125 c 2
EndSplineSet
EndChar

StartChar: B
Encoding: 66 66 1
Width: 38
VWidth: 0
Flags: W
HStem: -0.853516 2.04004<26.6331 31.4829> 34.8994 2.04004<0.000333402 7.6875 9.72754 26.4772>
VStem: 7.6875 2.04004<2.91895 34.8994> 30.4424 2.04004<23.2954 30.5922> 36.9678 2.04004<7.26632 16.9601>
LayerCount: 2
Fore
SplineSet
8.70703 -0.853516 m 0
 8.58887 -0.853516 8.46875 -0.833008 8.35352 -0.790039 c 0
 7.95312 -0.641602 7.6875 -0.260742 7.6875 0.166016 c 2
 7.6875 34.8994 l 1
 1.02051 34.8994 l 2
 0.457031 34.8994 0 35.3564 0 35.9189 c 0
 0 36.4824 0.457031 36.9395 1.02051 36.9395 c 2
 23.9785 36.9395 l 2
 25.6924 36.9395 27.8164 35.7998 29.5205 33.9648 c 0
 31.4307 31.9082 32.4824 29.3906 32.4824 26.876 c 0
 32.4824 25.8691 32.3965 24.8848 32.2266 23.9385 c 0
 36.3145 21.8896 39.0078 17.2422 39.0078 12.0879 c 0
 39.0078 8.6582 37.8438 5.42676 35.7314 2.99023 c 0
 33.583 0.511719 30.7139 -0.853516 27.6533 -0.853516 c 0
 27.0898 -0.853516 26.6328 -0.397461 26.6328 0.166016 c 0
 26.6328 0.729492 27.0898 1.18652 27.6533 1.18652 c 0
 32.7891 1.18652 36.9678 6.07715 36.9678 12.0879 c 0
 36.9678 16.7412 34.4404 20.8848 30.6797 22.4004 c 0
 30.2109 22.5889 29.9512 23.0918 30.0684 23.583 c 0
 30.3164 24.623 30.4424 25.7314 30.4424 26.876 c 0
 30.4424 29.5723 28.9287 31.6045 28.0264 32.5762 c 0
 26.5361 34.1807 24.9189 34.8994 23.9785 34.8994 c 2
 9.72754 34.8994 l 1
 9.72754 2.91895 l 1
 20.5361 15.5049 l 2
 20.9033 15.9316 21.5469 15.9814 21.9746 15.6143 c 0
 22.4014 15.2471 22.4512 14.6025 22.084 14.1758 c 2
 9.48145 -0.498047 l 2
 9.28418 -0.728516 8.99902 -0.853516 8.70703 -0.853516 c 0
15.3252 21.6553 m 0
 15.0645 21.6553 14.8027 21.7549 14.6035 21.9541 c 0
 14.2061 22.3525 14.2051 22.998 14.6035 23.3965 c 2
 20.5889 29.3809 l 2
 20.9873 29.7793 21.6328 29.7793 22.0312 29.3809 c 0
 22.4297 28.9824 22.4297 28.3369 22.0312 27.9385 c 2
 16.0469 21.9541 l 2
 15.8477 21.7549 15.5859 21.6553 15.3252 21.6553 c 0
EndSplineSet
EndChar

StartChar: C
Encoding: 67 67 2
Width: 38
VWidth: 0
Flags: W
HStem: -0.853516 2.04004<9.29159 33.4545> 18.0234 20G<37.5698 38.1333> 34.8213 2.04004<9.29159 14.25 16.9623 33.4602>
VStem: 0 2.04004<8.0976 27.9097> 7.71777 2.04004<12.9632 27.9093> 36.8311 2.04004<34.3301 38.0231>
LayerCount: 2
Fore
SplineSet
8.73828 12.9629 m 0xbc
 8.1748 12.9629 7.71777 13.4189 7.71777 13.9824 c 2
 7.71777 23.4404 l 2
 7.71777 27.0381 9.20898 30.416 11.915 32.9531 c 0
 12.6348 33.6279 13.417 34.3135 14.25 34.8213 c 1
 10.9766 34.8213 7.90137 33.6289 5.59277 31.4648 c 0
 3.30176 29.3174 2.04004 26.4678 2.04004 23.4404 c 2
 2.04004 12.5674 l 2
 2.04004 9.54004 3.30273 6.68945 5.59277 4.54199 c 0
 7.90234 2.37793 10.9766 1.18652 14.25 1.18652 c 2
 28.4961 1.18652 l 2
 31.7695 1.18652 34.8447 2.37793 37.1543 4.54199 c 0
 37.5654 4.92676 38.21 4.90625 38.5957 4.49609 c 0
 38.9805 4.08496 38.96 3.43945 38.5488 3.05371 c 0
 35.8604 0.53418 32.29 -0.853516 28.4961 -0.853516 c 2
 14.25 -0.853516 l 2
 10.4561 -0.853516 6.88574 0.533203 4.19727 3.05371 c 0
 1.49023 5.58984 0 8.96973 0 12.5674 c 2
 0 23.4404 l 2
 0 27.0381 1.49023 30.416 4.19727 32.9531 c 0
 6.88574 35.4736 10.4561 36.8613 14.25 36.8613 c 2
 21.373 36.8613 l 2
 21.4199 36.8613 21.4678 36.8613 21.5146 36.8613 c 0
 21.666 36.8613 21.8164 36.8613 21.9678 36.8613 c 2
 28.4961 36.8613 l 2xbc
 31.5293 36.8613 34.4199 35.9736 36.8311 34.3301 c 1
 36.8311 37.0029 l 2
 36.8311 37.5664 37.2881 38.0234 37.8516 38.0234 c 0xdc
 38.415 38.0234 38.8711 37.5664 38.8711 37.0029 c 2
 38.8711 32.209 l 2
 38.8711 31.8027 38.6299 31.4346 38.2568 31.2734 c 0
 37.8838 31.1113 37.4512 31.1875 37.1543 31.4648 c 0
 34.8447 33.6289 31.7695 34.8213 28.4961 34.8213 c 2
 21.9678 34.8213 l 2
 21.8301 34.8213 21.6924 34.8213 21.5547 34.8213 c 0
 18.4365 34.7256 15.5225 33.54 13.3105 31.4648 c 0
 11.0205 29.3164 9.75781 26.4678 9.75781 23.4404 c 2
 9.75781 13.9824 l 2
 9.75781 13.4189 9.30078 12.9629 8.73828 12.9629 c 0xbc
EndSplineSet
EndChar

StartChar: D
Encoding: 68 68 3
Width: 38
VWidth: 0
Flags: W
HStem: -0.950195 2.04004<0.000333402 24.5811> 34.9062 2.04004<0.000333402 9.17578 11.2158 24.1833>
VStem: 9.17578 2.04004<15.7686 34.9062> 36.5752 2.04004<12.0032 23.2283>
LayerCount: 2
Fore
SplineSet
10.1953 12.2861 m 0
 10.0635 12.2861 9.93164 12.3115 9.80469 12.3633 c 0
 9.42383 12.5215 9.17578 12.8936 9.17578 13.3057 c 2
 9.17578 34.9062 l 1
 1.02051 34.9062 l 2
 0.457031 34.9062 0 35.3623 0 35.9258 c 0
 0 36.4893 0.457031 36.9463 1.02051 36.9463 c 2
 17.3818 36.9463 l 2
 23.8193 36.9463 29.2861 34.8525 33.1904 30.8906 c 0
 34.9482 29.1074 36.3145 27.0186 37.25 24.6816 c 0
 38.1553 22.418 38.6152 20.0361 38.6152 17.6025 c 0
 38.6152 12.6875 36.7373 8.13965 33.3271 4.7959 c 0
 29.4922 1.03711 23.9785 -0.950195 17.3818 -0.950195 c 2
 1.02051 -0.950195 l 2
 0.457031 -0.950195 0 -0.493164 0 0.0693359 c 0
 0 0.632812 0.457031 1.08984 1.02051 1.08984 c 2
 17.3818 1.08984 l 2
 23.4336 1.08984 28.4531 2.875 31.8984 6.25293 c 0
 34.9141 9.20898 36.5752 13.2402 36.5752 17.6025 c 0
 36.5752 26.2012 29.9824 34.9062 17.3818 34.9062 c 2
 11.2158 34.9062 l 1
 11.2158 15.7686 l 1
 20.8486 25.4014 l 2
 21.2461 25.7988 21.8926 25.7998 22.291 25.4014 c 0
 22.6895 25.0029 22.6895 24.3574 22.291 23.959 c 2
 10.917 12.585 l 2
 10.7217 12.3896 10.4609 12.2861 10.1953 12.2861 c 0
EndSplineSet
EndChar

StartChar: E
Encoding: 69 69 4
Width: 38
VWidth: 0
Flags: W
HStem: -0.918945 2.04004<0.170255 7.56055 9.60059 37.0205> 35.3027 2.0401<0.000333402 7.56055 9.60059 34.4404>
VStem: 7.56055 2.04004<1.12109 16.8232 24.4561 35.3027> 34.4404 2.0401<27.6399 35.3027> 37.0205 2.04<1.12109 10.7341>
LayerCount: 2
Fore
SplineSet
35.46 27.6396 m 0
 34.8965 27.6396 34.4404 28.0967 34.4404 28.6592 c 2
 34.4404 35.3027 l 1
 9.60059 35.3027 l 1
 9.60059 24.4561 l 1
 27.9189 21.9336 l 2
 28.418 21.8643 28.793 21.4414 28.7998 20.9385 c 0
 28.8076 20.4346 28.4463 20.001 27.9502 19.917 c 2
 9.60059 16.8232 l 1
 9.60059 1.12109 l 1
 37.0205 1.12109 l 1
 37.0205 9.71387 l 2
 37.0205 10.2773 37.4766 10.7344 38.04 10.7344 c 0
 38.6035 10.7344 39.0605 10.2773 39.0605 9.71387 c 2
 39.0605 0.101562 l 2
 39.0605 -0.461914 38.6035 -0.918945 38.04 -0.918945 c 2
 8.58008 -0.918945 l 1
 1.19043 -0.918945 l 2
 0.626953 -0.918945 0.169922 -0.461914 0.169922 0.101562 c 0
 0.169922 0.665039 0.626953 1.12109 1.19043 1.12109 c 2
 7.56055 1.12109 l 1
 7.56055 17.6865 l 2
 7.56055 18.1836 7.91992 18.6094 8.41113 18.6924 c 2
 21.041 20.8213 l 1
 8.44141 22.5557 l 2
 7.93652 22.626 7.56055 23.0566 7.56055 23.5664 c 2
 7.56055 35.3027 l 1
 1.02051 35.3027 l 2
 0.457031 35.3027 0 35.7588 0 36.3223 c 0
 0 36.8857 0.457031 37.3428 1.02051 37.3428 c 2
 35.46 37.3428 l 2
 36.0234 37.3428 36.4805 36.8857 36.4805 36.3223 c 2
 36.4805 28.6592 l 2
 36.4805 28.0967 36.0234 27.6396 35.46 27.6396 c 0
EndSplineSet
EndChar

StartChar: F
Encoding: 70 70 5
Width: 38
VWidth: 0
Flags: W
HStem: -0.918945 2.04004<0.000332696 7.55957 9.59961 19.8591> 17.9912 2.0391<9.59961 28.7994> 25.7168 2.04<7.5599 28.7995> 35.3027 2.0401<0.000332696 37.1611>
VStem: 7.55957 2.04004<1.12109 17.9912> 37.1611 2.0401<27.6399 35.3027>
LayerCount: 2
Fore
SplineSet
9.59961 1.12109 m 1
 18.8398 1.12109 l 2
 19.4033 1.12109 19.8594 0.665039 19.8594 0.101562 c 0
 19.8594 -0.461914 19.4033 -0.918945 18.8398 -0.918945 c 2
 8.58008 -0.918945 l 1
 1.01953 -0.918945 l 2
 0.456055 -0.918945 0 -0.461914 0 0.101562 c 0
 0 0.665039 0.456055 1.12109 1.01953 1.12109 c 2
 7.55957 1.12109 l 1
 7.55957 19.0107 l 2
 7.55957 19.2822 7.66699 19.5488 7.8584 19.7402 c 0
 8.0498 19.9316 8.30957 20.0303 8.58008 20.0303 c 2
 27.7793 20.0303 l 2
 28.3428 20.0303 28.7998 19.5732 28.7998 19.0107 c 0
 28.7988 18.4473 28.3428 17.9912 27.7793 17.9912 c 2
 9.59961 17.9912 l 1
 9.59961 1.12109 l 1
38.1807 27.6396 m 0
 37.6172 27.6396 37.1611 28.0967 37.1611 28.6592 c 2
 37.1611 35.3027 l 1
 1.01953 35.3027 l 2
 0.456055 35.3027 0 35.7588 0 36.3223 c 0
 0 36.8857 0.456055 37.3428 1.01953 37.3428 c 2
 38.1807 37.3428 l 2
 38.7441 37.3428 39.2012 36.8857 39.2012 36.3223 c 2
 39.2012 28.6592 l 2
 39.2012 28.0967 38.7441 27.6396 38.1807 27.6396 c 0
27.7793 25.7168 m 2
 8.58008 25.7168 l 2
 8.0166 25.7168 7.55957 26.1729 7.55957 26.7363 c 0
 7.55957 27.2998 8.0166 27.7568 8.58008 27.7568 c 2
 27.7793 27.7568 l 2
 28.3428 27.7568 28.7998 27.2998 28.7998 26.7363 c 0
 28.7998 26.1729 28.3428 25.7168 27.7793 25.7168 c 2
EndSplineSet
EndChar

StartChar: G
Encoding: 71 71 6
Width: 38
VWidth: 0
Flags: W
HStem: -0.853516 2.03906<9.14392 33.5288> 12.5264 2.04004<20.2816 27.2109 30.1582 34.3796> 17.0996 20G<37.5698 38.1333> 20.2852 2.04004<20.2816 34.3796> 33.9268 2.04004<9.14392 33.5487>
VStem: 0 2.04004<7.90537 27.1499> 36.8311 2.04004<33.4941 37.0993>
LayerCount: 2
Fore
SplineSet
28.4961 -0.853516 m 2xce
 14.25 -0.853516 l 2
 10.4609 -0.853516 6.89453 0.499023 4.20703 2.9541 c 0
 1.49414 5.43359 0 8.73633 0 12.2559 c 2
 0 22.8564 l 2
 0 26.376 1.49414 29.6797 4.20703 32.1582 c 0
 6.89355 34.6143 10.4609 35.9668 14.25 35.9668 c 2
 21.373 35.9668 l 1
 28.4961 35.9668 l 2xce
 31.5293 35.9668 34.4199 35.0996 36.8311 33.4941 c 1
 36.8311 36.0791 l 2
 36.8311 36.6426 37.2881 37.0996 37.8516 37.0996 c 0xe6
 38.415 37.0996 38.8711 36.6426 38.8711 36.0791 c 2
 38.8711 31.4053 l 2
 38.8711 31.001 38.6328 30.6348 38.2627 30.4717 c 0
 37.8926 30.3086 37.4619 30.3799 37.1631 30.6523 c 0
 34.8506 32.7607 31.7744 33.9268 28.4961 33.9268 c 2
 21.373 33.9268 l 1
 14.25 33.9268 l 2
 10.9717 33.9268 7.89355 32.7637 5.58301 30.6523 c 0
 3.29785 28.5645 2.04004 25.7959 2.04004 22.8564 c 2
 2.04004 12.2559 l 2
 2.04004 9.31641 3.29785 6.5293 5.58301 4.44141 c 0
 7.89355 2.33008 10.9717 1.18555 14.25 1.18555 c 2
 28.4961 1.18555 l 2
 31.3926 1.18555 34.1328 2.09375 36.3262 3.76172 c 1
 27.2109 12.5264 l 1
 21.3008 12.5264 l 2
 20.7373 12.5264 20.2812 12.9824 20.2812 13.5459 c 0
 20.2812 14.1094 20.7373 14.5664 21.3008 14.5664 c 2
 33.3604 14.5664 l 2
 33.9229 14.5664 34.3799 14.1094 34.3799 13.5459 c 0
 34.3799 12.9824 33.9229 12.5264 33.3604 12.5264 c 2
 30.1582 12.5264 l 1
 38.54 4.44141 l 2
 38.7432 4.24609 38.875 3.97461 38.8711 3.69336 c 0
 38.8672 3.41211 38.7471 3.14453 38.54 2.9541 c 0
 35.8525 0.498047 32.2852 -0.853516 28.4961 -0.853516 c 2xce
33.3604 20.2852 m 2xd6
 21.3008 20.2852 l 2
 20.7373 20.2852 20.2812 20.7412 20.2812 21.3047 c 0
 20.2812 21.8682 20.7373 22.3252 21.3008 22.3252 c 2
 33.3604 22.3252 l 2
 33.9229 22.3252 34.3799 21.8682 34.3799 21.3047 c 0
 34.3799 20.7412 33.9229 20.2852 33.3604 20.2852 c 2xd6
EndSplineSet
EndChar

StartChar: H
Encoding: 72 72 7
Width: 38
VWidth: 0
Flags: W
HStem: -0.918945 2.04004<0.000332696 6.59277 8.63281 14.0466 24.9329 31.4463 33.4863 38.9792> 35.3027 2.0401<0.000332696 7.2207 9.26074 14.0466 24.9329 31.4463 33.4863 38.9792>
VStem: 6.59277 2.04004<1.12109 16.8555> 31.4463 2.04<1.12109 11.8672 13.9551 35.3027>
LayerCount: 2
Fore
SplineSet
37.96 -0.918945 m 2
 25.9531 -0.918945 l 2
 25.3896 -0.918945 24.9326 -0.461914 24.9326 0.101562 c 0
 24.9326 0.665039 25.3896 1.12109 25.9531 1.12109 c 2
 31.4463 1.12109 l 1
 31.4463 11.8672 l 1
 8.63281 16.8555 l 1
 8.63281 1.12109 l 1
 13.0264 1.12109 l 2
 13.5898 1.12109 14.0469 0.665039 14.0469 0.101562 c 0
 14.0469 -0.461914 13.5898 -0.918945 13.0264 -0.918945 c 2
 1.01953 -0.918945 l 2
 0.456055 -0.918945 0 -0.461914 0 0.101562 c 0
 0 0.665039 0.456055 1.12109 1.01953 1.12109 c 2
 6.59277 1.12109 l 1
 6.59277 18.123 l 2
 6.59277 18.4316 6.73242 18.7236 6.97266 18.917 c 0
 7.21387 19.1113 7.5293 19.1846 7.83008 19.1191 c 2
 31.4463 13.9551 l 1
 31.4463 35.3027 l 1
 25.9531 35.3027 l 2
 25.3896 35.3027 24.9326 35.7588 24.9326 36.3223 c 0
 24.9326 36.8857 25.3896 37.3428 25.9531 37.3428 c 2
 37.96 37.3428 l 2
 38.5234 37.3428 38.9795 36.8857 38.9795 36.3223 c 0
 38.9795 35.7588 38.5234 35.3027 37.96 35.3027 c 2
 33.4863 35.3027 l 1
 33.4863 12.8877 l 2
 33.5156 12.7539 33.4863 12.6123 33.4863 12.4707 c 2
 33.4863 1.12109 l 1
 37.96 1.12109 l 2
 38.5234 1.12109 38.9795 0.665039 38.9795 0.101562 c 0
 38.9795 -0.461914 38.5234 -0.918945 37.96 -0.918945 c 2
27.501 20.5957 m 0
 27.4277 20.5957 27.3525 20.5957 27.2773 20.5957 c 2
 7.96582 24.9434 l 2
 7.49805 25.0488 7.16602 25.4648 7.16895 25.9443 c 2
 7.2207 35.3027 l 1
 1.01953 35.3027 l 2
 0.456055 35.3027 0 35.7588 0 36.3223 c 0
 0 36.8857 0.456055 37.3428 1.01953 37.3428 c 2
 13.0264 37.3428 l 2
 13.5898 37.3428 14.0469 36.8857 14.0469 36.3223 c 0
 14.0469 35.7588 13.5898 35.3027 13.0264 35.3027 c 2
 9.26074 35.3027 l 1
 9.21289 26.7549 l 1
 27.7236 22.6113 l 2
 28.2734 22.4883 28.6191 21.9424 28.4961 21.3936 c 0
 28.3896 20.918 27.9688 20.5957 27.501 20.5957 c 0
EndSplineSet
EndChar

StartChar: I
Encoding: 73 73 8
Width: 38
VWidth: 0
Flags: W
HStem: -0.918945 2.04004<0.000333398 13.7246 15.7646 21.1787 23.2188 39.1335> 34.8994 2.0401<0.000333398 14.3496 16.3896 39.1335>
VStem: 13.7246 2.04<1.12109 16.8555> 14.292 2.0449<26.7842 34.8994> 21.1787 2.0401<1.12109 15.6729 17.7598 23.5781>
LayerCount: 2
Fore
SplineSet
21.1787 15.6729 m 1xe8
 21.1787 15.6729 21.1523 15.6729 21.1387 15.6729 c 2
 15.7646 16.8555 l 1
 15.7646 1.12109 l 1
 21.1787 1.12109 l 1
 21.1787 15.6729 l 1xe8
38.1133 -0.918945 m 2
 1.01953 -0.918945 l 2
 0.457031 -0.918945 0 -0.461914 0 0.101562 c 0
 0 0.665039 0.457031 1.12109 1.01953 1.12109 c 2
 13.7246 1.12109 l 1
 13.7246 18.123 l 2xe8
 13.7246 18.4316 13.8643 18.7236 14.1045 18.917 c 0
 14.3457 19.1113 14.6602 19.1855 14.9619 19.1191 c 2
 21.1787 17.7598 l 1
 21.1787 23.5781 l 1
 15.084 24.9795 l 2
 14.6182 25.0869 14.2891 25.502 14.292 25.9795 c 2
 14.3496 34.8994 l 1
 1.01953 34.8994 l 2
 0.457031 34.8994 0 35.3564 0 35.9189 c 0
 0 36.4824 0.457031 36.9395 1.01953 36.9395 c 2
 38.1133 36.9395 l 2
 38.6768 36.9395 39.1338 36.4824 39.1338 35.9189 c 0
 39.1338 35.3564 38.6768 34.8994 38.1133 34.8994 c 2
 16.3896 34.8994 l 1
 16.3369 26.7842 l 1xd8
 22.4268 25.3848 l 2
 22.8896 25.2783 23.2188 24.8652 23.2188 24.3906 c 2
 23.2188 1.12109 l 1
 38.1133 1.12109 l 2
 38.6768 1.12109 39.1338 0.665039 39.1338 0.101562 c 0
 39.1338 -0.461914 38.6768 -0.918945 38.1133 -0.918945 c 2
EndSplineSet
EndChar

StartChar: J
Encoding: 74 74 9
Width: 38
VWidth: 0
Flags: W
HStem: -1.09375 2.04004<14.888 23.077> 12.5264 2.04004<0.000333402 8.39648 10.4414 17.2702> 23.6514 2.01562<26.697 29.3415> 34.8994 2.04004<10.5511 21.3447 23.3848 38.8102>
VStem: 8.39648 2.04492<6.91732 12.5264> 20.7188 2.04004<6.94662 16.8848> 21.2871 2.04492<26.8398 34.8994>
LayerCount: 2
Fore
SplineSet
28.3525 23.6514 m 0xfa
 28.2793 23.6514 28.2041 23.6514 28.1289 23.6514 c 2
 22.084 25.0293 l 2
 21.6162 25.1357 21.2842 25.5508 21.2871 26.0312 c 2
 21.3447 34.8994 l 1
 11.5703 34.8994 l 2
 11.0068 34.8994 10.5508 35.3564 10.5508 35.9189 c 0
 10.5508 36.4824 11.0068 36.9395 11.5703 36.9395 c 2
 37.79 36.9395 l 2
 38.3535 36.9395 38.8105 36.4824 38.8105 35.9189 c 0
 38.8105 35.3564 38.3535 34.8994 37.79 34.8994 c 2
 23.3848 34.8994 l 1
 23.332 26.8398 l 1
 28.5742 25.667 l 2
 29.124 25.5439 29.4697 24.999 29.3467 24.4492 c 0
 29.2402 23.9746 28.8193 23.6514 28.3525 23.6514 c 0xfa
18.5303 -1.09375 m 0
 16.0361 -1.09375 13.9326 -0.243164 12.2773 1.43457 c 0
 8.87891 4.87988 8.44824 10.7627 8.39648 12.5264 c 1
 1.02051 12.5264 l 2
 0.457031 12.5264 0 12.9824 0 13.5459 c 0
 0 14.1094 0.457031 14.5664 1.02051 14.5664 c 2
 16.251 14.5664 l 2
 16.8135 14.5664 17.2705 14.1094 17.2705 13.5459 c 0
 17.2705 12.9824 16.8135 12.5264 16.251 12.5264 c 2
 10.4414 12.5264 l 1
 10.5039 10.8955 10.9248 5.70703 13.7344 2.86328 c 0
 15.0088 1.57324 16.5771 0.946289 18.5303 0.946289 c 0
 21.4775 0.946289 23.7939 1.88867 25.415 3.74609 c 0
 28.6152 7.41309 28.4336 13.6963 28.2676 15.8105 c 1
 22.7588 16.8848 l 1
 22.7588 7.96582 l 2
 22.7588 7.40234 22.3027 6.94629 21.7393 6.94629 c 0
 21.1758 6.94629 20.7188 7.40234 20.7188 7.96582 c 2
 20.7188 18.123 l 2xfc
 20.7188 18.4277 20.8555 18.7158 21.0908 18.9102 c 0
 21.3262 19.1035 21.6357 19.1826 21.9346 19.124 c 2
 29.4033 17.667 l 2
 29.8311 17.584 30.1582 17.2373 30.2178 16.8057 c 0
 30.2695 16.4307 31.4365 7.55176 26.957 2.41016 c 0
 24.9307 0.0849609 22.0957 -1.09375 18.5303 -1.09375 c 0
EndSplineSet
EndChar

StartChar: K
Encoding: 75 75 10
Width: 38
VWidth: 0
Flags: W
HStem: -0.918945 2.04004<0.000333402 6.00391 8.04395 14.0465 24.7845 31.1357 33.5303 38.7995> 35.3027 2.04004<0.000333402 6.00391 8.04395 14.0465>
VStem: 6.00391 2.04004<1.12109 14.6807 16.9668 23.3809 25.667 35.3027>
LayerCount: 2
Fore
SplineSet
13.0273 -0.918945 m 2
 1.02051 -0.918945 l 2
 0.457031 -0.918945 0 -0.461914 0 0.101562 c 0
 0 0.665039 0.457031 1.12109 1.02051 1.12109 c 2
 6.00391 1.12109 l 1
 6.00391 15.2773 l 1
 6.00391 15.3359 l 1
 6.00391 23.9785 l 1
 6.00391 24.0352 l 1
 6.00391 35.3027 l 1
 1.02051 35.3027 l 2
 0.457031 35.3027 0 35.7588 0 36.3223 c 0
 0 36.8857 0.457031 37.3428 1.02051 37.3428 c 2
 13.0273 37.3428 l 2
 13.5908 37.3428 14.0469 36.8857 14.0469 36.3223 c 0
 14.0469 35.7588 13.5908 35.3027 13.0273 35.3027 c 2
 8.04395 35.3027 l 1
 8.04395 25.667 l 1
 31.7158 37.6396 l 2
 32.2188 37.8945 32.832 37.6924 33.0859 37.1904 c 0
 33.3408 36.6875 33.1387 36.0732 32.6367 35.8193 c 2
 8.04395 23.3809 l 1
 8.04395 16.9668 l 1
 19.1396 22.5791 l 2
 19.6133 22.8184 20.1914 22.6553 20.4688 22.2031 c 2
 33.5303 0.946289 l 1
 37.7959 0.946289 l 2
 38.3584 0.946289 38.8154 0.489258 38.8154 -0.0742188 c 0
 38.8154 -0.637695 38.3584 -1.09375 37.7959 -1.09375 c 2
 25.7881 -1.09375 l 2
 25.2246 -1.09375 24.7686 -0.637695 24.7686 -0.0742188 c 0
 24.7686 0.489258 25.2246 0.946289 25.7881 0.946289 c 2
 31.1357 0.946289 l 1
 19.2227 20.335 l 1
 8.04395 14.6807 l 1
 8.04395 1.12109 l 1
 13.0273 1.12109 l 2
 13.5908 1.12109 14.0469 0.665039 14.0469 0.101562 c 0
 14.0469 -0.461914 13.5908 -0.918945 13.0273 -0.918945 c 2
EndSplineSet
EndChar

StartChar: L
Encoding: 76 76 11
Width: 38
VWidth: 0
Flags: W
HStem: -0.918945 2.04004<0.000332696 7.38965 10.1982 36.8496> 35.3027 2.0401<0.000332696 7.38965 9.42969 15.2402 17.2803 25.1022>
VStem: 7.38965 2.04004<3.82715 35.3027> 15.2402 2.0401<13.6465 35.3027> 36.8496 2.04<1.12109 10.7341>
LayerCount: 2
Fore
SplineSet
15.2402 13.6465 m 1
 15.2402 35.3027 l 1
 9.42969 35.3027 l 1
 9.42969 3.82715 l 1
 15.2402 13.6465 l 1
17.1221 12.8203 m 2
 10.1982 1.12109 l 1
 36.8496 1.12109 l 1
 36.8496 9.71387 l 2
 36.8496 10.2773 37.3066 10.7344 37.8701 10.7344 c 0
 38.4326 10.7344 38.8896 10.2773 38.8896 9.71387 c 2
 38.8896 0.101562 l 2
 38.8896 -0.461914 38.4326 -0.918945 37.8701 -0.918945 c 2
 8.40918 -0.918945 l 1
 1.01953 -0.918945 l 2
 0.456055 -0.918945 0 -0.461914 0 0.101562 c 0
 0 0.665039 0.456055 1.12109 1.01953 1.12109 c 2
 7.38965 1.12109 l 1
 7.38965 35.3027 l 1
 1.01953 35.3027 l 2
 0.456055 35.3027 0 35.7588 0 36.3223 c 0
 0 36.8857 0.456055 37.3428 1.01953 37.3428 c 2
 24.083 37.3428 l 2
 24.6465 37.3428 25.1025 36.8857 25.1025 36.3223 c 0
 25.1025 35.7588 24.6465 35.3027 24.083 35.3027 c 2
 17.2803 35.3027 l 1
 17.2803 13.3652 l 2
 17.2803 13.165 17.2217 12.9785 17.1221 12.8203 c 2
EndSplineSet
EndChar

StartChar: M
Encoding: 77 77 12
Width: 38
VWidth: 0
Flags: W
HStem: -0.918945 2.04004<0.000332695 6.00293 8.04297 14.0465 24.7328 31.9268 33.9668 38.779> 35.3027 2.04004<0.000332695 6.00293 8.04297 12.6045 27.3652 31.9268 33.9668 38.779>
VStem: 6.00293 2.04004<1.12109 15.9814 18.8652 35.3027> 31.9268 2.04004<1.12109 15.9814 18.8652 35.3027>
LayerCount: 2
Fore
SplineSet
8.04297 18.8652 m 1
 18.542 29.3643 l 1
 12.6045 35.3027 l 1
 8.04297 35.3027 l 1
 8.04297 18.8652 l 1
31.9268 35.3027 m 1
 27.3652 35.3027 l 1
 21.4277 29.3643 l 1
 31.9268 18.8652 l 1
 31.9268 35.3027 l 1
37.7588 -0.918945 m 2
 25.752 -0.918945 l 2
 25.1885 -0.918945 24.7324 -0.461914 24.7324 0.101562 c 0
 24.7324 0.665039 25.1885 1.12109 25.752 1.12109 c 2
 31.9268 1.12109 l 1
 31.9268 15.9814 l 1
 19.9844 27.9219 l 1
 8.07422 15.9814 l 1
 8.04297 15.9814 l 1
 8.04297 1.12109 l 1
 13.0264 1.12109 l 2
 13.5898 1.12109 14.0469 0.665039 14.0469 0.101562 c 0
 14.0469 -0.461914 13.5898 -0.918945 13.0264 -0.918945 c 2
 1.01953 -0.918945 l 2
 0.456055 -0.918945 0 -0.461914 0 0.101562 c 0
 0 0.665039 0.456055 1.12109 1.01953 1.12109 c 2
 6.00293 1.12109 l 1
 6.00293 35.3027 l 1
 1.01953 35.3027 l 2
 0.456055 35.3027 0 35.7588 0 36.3223 c 0
 0 36.8857 0.456055 37.3428 1.01953 37.3428 c 2
 13.0264 37.3428 l 2
 13.2969 37.3428 13.5566 37.2354 13.748 37.0439 c 2
 19.9844 30.8066 l 1
 26.2217 37.0439 l 2
 26.4131 37.2354 26.6719 37.3428 26.9424 37.3428 c 2
 37.7588 37.3428 l 2
 38.3223 37.3428 38.7793 36.8857 38.7793 36.3223 c 0
 38.7793 35.7588 38.3223 35.3027 37.7588 35.3027 c 2
 33.9668 35.3027 l 1
 33.9668 1.12109 l 1
 37.7588 1.12109 l 2
 38.3223 1.12109 38.7793 0.665039 38.7793 0.101562 c 0
 38.7793 -0.461914 38.3223 -0.918945 37.7588 -0.918945 c 2
EndSplineSet
EndChar

StartChar: N
Encoding: 78 78 13
Width: 38
VWidth: 0
Flags: W
HStem: -0.918945 2.04004<0.000332695 6.00293 8.04297 14.0465 24.7328 31.9258 33.9658 38.779> 35.3027 2.04004<0.000332695 6.00293 8.04297 12.6045 26.1953 31.9258 33.9658 38.9489>
VStem: 6.00293 2.04004<1.12109 35.3027> 24.1553 2.04004<26.6367 35.3027> 31.9258 2.04004<1.12109 15.9805 18.8662 35.3027>
LayerCount: 2
Fore
SplineSet
31.9258 35.3027 m 1
 26.1953 35.3027 l 1
 26.1953 24.5967 l 1
 31.9258 18.8662 l 1
 31.9258 35.3027 l 1
37.7588 -0.918945 m 2
 25.752 -0.918945 l 2
 25.1885 -0.918945 24.7324 -0.461914 24.7324 0.101562 c 0
 24.7324 0.665039 25.1885 1.12109 25.752 1.12109 c 2
 31.9258 1.12109 l 1
 31.9258 15.9805 l 1
 12.6045 35.3027 l 1
 8.04297 35.3027 l 1
 8.04297 1.12109 l 1
 13.0264 1.12109 l 2
 13.5898 1.12109 14.0469 0.665039 14.0469 0.101562 c 0
 14.0469 -0.461914 13.5898 -0.918945 13.0264 -0.918945 c 2
 1.01953 -0.918945 l 2
 0.456055 -0.918945 0 -0.461914 0 0.101562 c 0
 0 0.665039 0.456055 1.12109 1.01953 1.12109 c 2
 6.00293 1.12109 l 1
 6.00293 35.3027 l 1
 1.01953 35.3027 l 2
 0.456055 35.3027 0 35.7588 0 36.3223 c 0
 0 36.8857 0.456055 37.3428 1.01953 37.3428 c 2
 13.0264 37.3428 l 2
 13.2969 37.3428 13.5566 37.2354 13.748 37.0439 c 2
 24.1553 26.6367 l 1
 24.1553 36.3223 l 2
 24.1553 36.8857 24.6123 37.3428 25.1758 37.3428 c 2
 37.9287 37.3428 l 2
 38.4922 37.3428 38.9492 36.8857 38.9492 36.3223 c 0
 38.9492 35.7588 38.4922 35.3027 37.9287 35.3027 c 2
 33.9658 35.3027 l 1
 33.9658 1.12109 l 1
 37.7588 1.12109 l 2
 38.3223 1.12109 38.7793 0.665039 38.7793 0.101562 c 0
 38.7793 -0.461914 38.3223 -0.918945 37.7588 -0.918945 c 2
EndSplineSet
EndChar

StartChar: O
Encoding: 79 79 14
Width: 38
VWidth: 0
Flags: W
HStem: -0.920898 21G<16.9326 19.4995>
LayerCount: 2
Fore
SplineSet
8.06055 7.20801 m 0
 7.7998 7.20801 7.53906 7.30762 7.33984 7.50586 c 0
 6.94141 7.9043 6.94141 8.55078 7.33984 8.94922 c 2
 29.8828 31.4922 l 1
 26.6133 33.9004 22.5957 35.0996 18.4697 34.874 c 0
 13.8369 34.6211 9.57812 32.626 6.47949 29.2559 c 0
 3.38672 25.8936 1.81934 21.5635 2.06543 17.0635 c 0
 2.31055 12.5645 4.34082 8.43066 7.78125 5.4248 c 0
 11.2295 2.41309 15.6807 0.893555 20.3125 1.14648 c 0
 29.8652 1.66797 37.2246 9.6582 36.7168 18.957 c 0
 36.5322 22.334 35.3301 25.5342 33.248 28.2168 c 0
 32.9023 28.6621 32.9824 29.3027 33.4268 29.6484 c 0
 33.8721 29.9941 34.5127 29.9141 34.8584 29.4697 c 0
 37.1992 26.458 38.5459 22.8613 38.7529 19.0684 c 0
 39.0293 14.0146 37.2715 9.15527 33.8037 5.38379 c 0
 30.3428 1.62012 25.5908 -0.606445 20.4238 -0.890625 c 0
 20.0527 -0.911133 19.6836 -0.920898 19.3154 -0.920898 c 0
 14.5498 -0.920898 10.0137 0.765625 6.43945 3.88867 c 0
 2.58105 7.25977 0.304688 11.8984 0.0283203 16.9521 c 0
 -0.248047 22.0059 1.50977 26.8662 4.97754 30.6367 c 0
 8.43945 34.4004 13.1914 36.6289 18.3584 36.9111 c 0
 23.2891 37.1807 28.085 35.627 31.8633 32.5371 c 0
 31.9258 32.4863 31.9805 32.4287 32.0273 32.3672 c 0
 32.0596 32.3428 32.0898 32.3154 32.1191 32.2861 c 0
 32.5176 31.8877 32.5176 31.2422 32.1191 30.8438 c 2
 8.78223 7.50586 l 2
 8.58301 7.30762 8.32227 7.20801 8.06055 7.20801 c 0
EndSplineSet
EndChar

StartChar: P
Encoding: 80 80 15
Width: 38
VWidth: 0
Flags: W
HStem: -0.918945 2.04004<0.000333402 7.38965 9.42969 19.6901> 12.4189 2.0401<18.2393 30.5296> 35.3027 2.0401<0.000333402 30.5296>
VStem: 7.38965 2.04004<1.12109 33.3395> 36.6699 2.0401<20.5971 29.1615>
LayerCount: 2
Fore
SplineSet
9.42969 1.12109 m 1
 18.6699 1.12109 l 2
 19.2334 1.12109 19.6904 0.665039 19.6904 0.101562 c 0
 19.6904 -0.461914 19.2334 -0.918945 18.6699 -0.918945 c 2
 8.41016 -0.918945 l 1
 1.02051 -0.918945 l 2
 0.457031 -0.918945 0 -0.461914 0 0.101562 c 0
 0 0.665039 0.457031 1.12109 1.02051 1.12109 c 2
 7.38965 1.12109 l 1
 7.38965 32.3203 l 2
 7.38965 32.8838 7.84668 33.3398 8.41016 33.3398 c 0
 8.97363 33.3398 9.42969 32.8838 9.42969 32.3203 c 2
 9.42969 1.12109 l 1
26.25 12.4189 m 2
 15.7383 12.4189 l 2
 15.1748 12.4189 14.7188 12.876 14.7188 13.4385 c 0
 14.7188 13.8047 14.9111 14.125 15.2002 14.3057 c 2
 26.0488 25.1533 l 2
 26.4473 25.5518 27.0928 25.5518 27.4912 25.1533 c 0
 27.8896 24.7559 27.8896 24.1094 27.4912 23.7109 c 2
 18.2393 14.459 l 1
 26.25 14.459 l 2
 31.9961 14.459 36.6699 19.1338 36.6699 24.8789 c 0
 36.6699 30.625 31.9961 35.3027 26.25 35.3027 c 2
 1.02051 35.3027 l 2
 0.457031 35.3027 0 35.7588 0 36.3223 c 0
 0 36.8857 0.457031 37.3428 1.02051 37.3428 c 2
 26.25 37.3428 l 2
 33.1201 37.3428 38.71 31.749 38.71 24.8789 c 0
 38.71 18.0088 33.1201 12.4189 26.25 12.4189 c 2
EndSplineSet
EndChar

StartChar: Q
Encoding: 81 81 16
Width: 38
VWidth: 0
Flags: W
HStem: -11.2676 21G<37.6978 37.9585> -0.918945 2.04004<7.94171 25.0166> 34.8994 2.04004<7.94171 30.9069>
VStem: 0 2.04004<7.23101 28.7899> 36.8086 2.04004<4.42254 28.7899>
LayerCount: 2
Fore
SplineSet
37.8281 -11.2676 m 0xb8
 37.5674 -11.2676 37.3066 -11.168 37.1074 -10.9688 c 2
 27.0576 -0.918945 l 1
 12.0625 -0.918945 l 2
 8.8291 -0.918945 5.79297 0.412109 3.5127 2.82812 c 0
 1.24707 5.22754 0 8.41504 0 11.8008 c 2
 0 24.2197 l 2
 0 27.6064 1.24707 30.793 3.5127 33.1924 c 0
 5.79297 35.6084 8.8291 36.9395 12.0625 36.9395 c 2
 26.7861 36.9395 l 2
 30.0195 36.9395 33.0557 35.6084 35.3359 33.1924 c 0
 37.6006 30.793 38.8486 27.6064 38.8486 24.2197 c 2
 38.8486 11.4561 l 2
 38.8486 3.46777 36.7842 1.98535 36.1523 1.7207 c 0
 35.7705 1.56152 35.3301 1.64844 35.0381 1.94043 c 2
 16.4814 20.4922 l 2
 16.083 20.8906 16.084 21.5371 16.4814 21.9355 c 0
 16.8799 22.334 17.5264 22.334 17.9248 21.9355 c 2
 35.7012 4.16211 l 2
 36.1572 5.03516 36.8086 7.05371 36.8086 11.4561 c 2
 36.8086 24.2197 l 2
 36.8086 30.1084 32.3125 34.8994 26.7861 34.8994 c 2
 12.0625 34.8994 l 2
 6.53613 34.8994 2.04004 30.1084 2.04004 24.2197 c 2
 2.04004 11.8008 l 2
 2.04004 5.91211 6.53613 1.12109 12.0625 1.12109 c 2
 25.0166 1.12109 l 1x78
 15.3936 10.7441 l 2
 14.9951 11.1426 14.9951 11.7881 15.3936 12.1865 c 0
 15.792 12.585 16.4375 12.585 16.8359 12.1865 c 2
 38.5498 -9.52637 l 2
 38.9482 -9.9248 38.9482 -10.5713 38.5498 -10.9688 c 0
 38.3506 -11.168 38.0889 -11.2676 37.8281 -11.2676 c 0xb8
EndSplineSet
EndChar

StartChar: R
Encoding: 82 82 17
Width: 38
VWidth: 0
Flags: W
HStem: -0.918945 2.04004<0.000333402 7.38965 9.42969 19.6891 24.2806 32.6641 35.4561 38.9596> 12.4189 2.04004<24.8906 30.5296> 35.3027 2.04004<0.000333402 30.5296>
VStem: 7.38965 2.04004<1.12109 33.3395> 36.6699 2.04004<20.5971 29.1615>
LayerCount: 2
Fore
SplineSet
9.42969 1.12109 m 1
 18.6699 1.12109 l 2
 19.2334 1.12109 19.6895 0.665039 19.6895 0.101562 c 0
 19.6895 -0.461914 19.2334 -0.918945 18.6699 -0.918945 c 2
 8.41016 -0.918945 l 1
 1.02051 -0.918945 l 2
 0.457031 -0.918945 0 -0.461914 0 0.101562 c 0
 0 0.665039 0.457031 1.12109 1.02051 1.12109 c 2
 7.38965 1.12109 l 1
 7.38965 32.3203 l 2
 7.38965 32.8828 7.84668 33.3398 8.41016 33.3398 c 0
 8.97363 33.3398 9.42969 32.8828 9.42969 32.3203 c 2
 9.42969 1.12109 l 1
37.9395 -0.918945 m 2
 25.2998 -0.918945 l 2
 24.7363 -0.918945 24.2803 -0.461914 24.2803 0.101562 c 0
 24.2803 0.665039 24.7363 1.12109 25.2998 1.12109 c 2
 32.6641 1.12109 l 1
 21.7959 12.7422 l 2
 21.5186 13.0391 21.4434 13.4727 21.6045 13.8447 c 0
 21.7666 14.2178 22.1338 14.459 22.541 14.459 c 2
 26.25 14.459 l 2
 31.9951 14.459 36.6699 19.1338 36.6699 24.8789 c 0
 36.6699 30.625 31.9951 35.3027 26.25 35.3027 c 2
 1.02051 35.3027 l 2
 0.457031 35.3027 0 35.7588 0 36.3223 c 0
 0 36.8857 0.457031 37.3428 1.02051 37.3428 c 2
 26.25 37.3428 l 2
 33.1201 37.3428 38.71 31.749 38.71 24.8789 c 0
 38.71 18.0088 33.1201 12.4189 26.25 12.4189 c 2
 24.8906 12.4189 l 1
 35.4561 1.12109 l 1
 37.9395 1.12109 l 2
 38.5029 1.12109 38.96 0.665039 38.96 0.101562 c 0
 38.96 -0.461914 38.5029 -0.918945 37.9395 -0.918945 c 2
16.085 18.5293 m 0
 15.8242 18.5293 15.5635 18.6289 15.3643 18.8281 c 0
 14.9658 19.2266 14.9658 19.8721 15.3643 20.2705 c 2
 25.9932 30.8994 l 2
 26.3906 31.2969 27.0371 31.2979 27.4355 30.8994 c 0
 27.834 30.501 27.834 29.8555 27.4355 29.457 c 2
 16.8066 18.8281 l 2
 16.6074 18.6289 16.3467 18.5293 16.085 18.5293 c 0
EndSplineSet
EndChar

StartChar: S
Encoding: 83 83 18
Width: 38
VWidth: 0
Flags: W
HStem: -0.920898 2.04004<7.98636 31.1422> 10.7793 2.04<2.06348 10.3796> 34.9014 2.04<7.92242 31.0815>
VStem: 37.0205 2.04<23.2015 28.8476 31.29 36.8591>
LayerCount: 2
Fore
SplineSet
26.9346 -0.920898 m 2
 12.126 -0.920898 l 2
 8.87695 -0.920898 5.8252 0.40918 3.5332 2.82422 c 0
 1.25488 5.22461 0 8.41211 0 11.7988 c 0
 0 12.3623 0.457031 12.8193 1.02051 12.8193 c 2
 9.36035 12.8193 l 2
 9.92383 12.8193 10.3799 12.3623 10.3799 11.7988 c 0
 10.3799 11.2363 9.92383 10.7793 9.36035 10.7793 c 2
 2.06348 10.7793 l 1
 2.5498 5.36719 6.88965 1.11914 12.126 1.11914 c 2
 26.9346 1.11914 l 2
 32.2646 1.11914 36.667 5.52148 37.0205 11.0732 c 1
 0.695312 23.2539 l 2
 0.280273 23.3936 0 23.7832 0 24.2217 c 0
 0 27.6094 1.25488 30.7969 3.5332 33.1963 c 0
 5.8252 35.6113 8.87695 36.9414 12.126 36.9414 c 2
 26.9346 36.9414 l 2
 30.1836 36.9414 33.2354 35.6113 35.5273 33.1963 c 0
 36.0879 32.6055 36.5869 31.9668 37.0205 31.29 c 2
 37.0205 35.8389 l 2
 37.0205 36.4023 37.4766 36.8594 38.04 36.8594 c 0
 38.6035 36.8594 39.0605 36.4023 39.0605 35.8389 c 2
 39.0605 24.2217 l 2
 39.0605 23.6582 38.6035 23.2012 38.04 23.2012 c 0
 37.4766 23.2012 37.0205 23.6582 37.0205 24.2217 c 0
 37.0205 30.1104 32.4961 34.9014 26.9346 34.9014 c 2
 12.126 34.9014 l 2
 6.79492 34.9014 2.41699 30.499 2.06348 24.9473 c 1
 38.3643 12.7666 l 2
 38.7803 12.627 39.0605 12.2373 39.0605 11.7988 c 0
 39.0605 8.41211 37.8057 5.22461 35.5273 2.82422 c 0
 33.2344 0.40918 30.1836 -0.920898 26.9346 -0.920898 c 2
EndSplineSet
EndChar

StartChar: T
Encoding: 84 84 19
Width: 38
VWidth: 0
Flags: W
HStem: -0.853516 2.04004<13.554 21.0078> 34.8994 2.0401<2.04004 13.2891 15.334 20.1025 23.0479 36.9229>
VStem: 0 2.04004<23.8665 34.8994> 13.2891 2.0449<27.8711 34.8994> 21.0078 2.0401<1.18652 32.5996> 36.9229 2.04<23.8665 34.8994>
LayerCount: 2
Fore
SplineSet
20.1025 34.8994 m 1
 15.334 34.8994 l 1
 15.334 27.8711 l 1
 20.1025 34.8994 l 1
37.9434 23.8662 m 0
 37.3799 23.8662 36.9229 24.3232 36.9229 24.8857 c 2
 36.9229 34.8994 l 1
 23.0479 34.8994 l 1
 23.0479 0.166016 l 2
 23.0479 -0.397461 22.5918 -0.853516 22.0283 -0.853516 c 2
 14.5742 -0.853516 l 2
 14.0107 -0.853516 13.5537 -0.397461 13.5537 0.166016 c 0
 13.5537 0.729492 14.0107 1.18652 14.5742 1.18652 c 2
 21.0078 1.18652 l 1
 21.0078 32.5996 l 1
 15.1533 23.9707 l 2
 14.9014 23.5996 14.4365 23.4365 14.0088 23.5684 c 0
 13.5801 23.7002 13.2891 24.0967 13.2891 24.5449 c 2
 13.2891 34.8994 l 1
 2.04004 34.8994 l 1
 2.04004 24.8857 l 2
 2.04004 24.3223 1.58301 23.8662 1.01953 23.8662 c 0
 0.456055 23.8662 0 24.3223 0 24.8857 c 2
 0 35.9189 l 2
 0 36.4824 0.456055 36.9395 1.01953 36.9395 c 2
 22.0283 36.9395 l 2
 22.1162 36.9395 22.2051 36.9395 22.2939 36.9395 c 0
 27.5107 36.9395 32.7275 36.9395 37.9434 36.9395 c 0
 38.5068 36.9395 38.9629 36.4824 38.9629 35.9189 c 2
 38.9629 24.8857 l 2
 38.9629 24.3232 38.5068 23.8662 37.9434 23.8662 c 0
EndSplineSet
EndChar

StartChar: U
Encoding: 85 85 20
Width: 38
VWidth: 0
Flags: W
HStem: -1.09375 2.04004<14.5635 28.7094> 34.999 2.04004<0.000333402 4.75098 6.79102 12.5234 23.7923 33.0713 35.1113 39.0006>
VStem: 4.75098 2.04004<6.27655 34.999> 12.5234 2.04004<1.24219 34.999> 33.0713 2.04004<6.27655 34.999>
LayerCount: 2
Fore
SplineSet
12.5234 34.999 m 1
 6.79102 34.999 l 1
 6.79102 11.626 l 2
 6.79102 8.71484 7.60547 5.98926 9.08496 3.95215 c 0
 10.0605 2.6084 11.2451 1.68262 12.5234 1.24219 c 1
 12.5234 34.999 l 1
25.5947 -1.09375 m 2
 14.2666 -1.09375 l 2
 11.6621 -1.09375 9.23535 0.272461 7.43457 2.75391 c 0
 5.7041 5.13672 4.75098 8.28711 4.75098 11.626 c 2
 4.75098 34.999 l 1
 1.02051 34.999 l 2
 0.457031 34.999 0 35.4551 0 36.0186 c 0
 0 36.582 0.457031 37.0391 1.02051 37.0391 c 2
 13.4072 37.0391 l 2
 13.7803 37.0391 14.0889 36.8389 14.2666 36.5391 c 0
 14.4395 36.3564 14.5635 36.1104 14.5635 35.8389 c 2
 14.5635 0.946289 l 1
 25.5947 0.946289 l 2
 27.5293 0.946289 29.3691 2.01367 30.7773 3.95215 c 0
 32.2568 5.98926 33.0713 8.71484 33.0713 11.626 c 2
 33.0713 34.999 l 1
 24.8125 34.999 l 2
 24.249 34.999 23.792 35.4551 23.792 36.0186 c 0
 23.792 36.582 24.249 37.0391 24.8125 37.0391 c 2
 37.9814 37.0391 l 2
 38.5449 37.0391 39.001 36.582 39.001 36.0186 c 0
 39.001 35.4551 38.5449 34.999 37.9814 34.999 c 2
 35.1113 34.999 l 1
 35.1113 11.626 l 2
 35.1113 8.28711 34.1582 5.13672 32.4277 2.75391 c 0
 30.626 0.272461 28.2002 -1.09375 25.5947 -1.09375 c 2
EndSplineSet
EndChar

StartChar: V
Encoding: 86 86 21
Width: 38
VWidth: 0
Flags: W
HStem: -1.09375 21G<19.6187 20.038> 34.999 2.0401<0.000333398 4.95703 7.14941 13.2852 23.6898 32.5078 34.6992 38.8981>
LayerCount: 2
Fore
SplineSet
22.7471 10.1484 m 1
 13.2852 34.999 l 1
 7.14941 34.999 l 1
 19.8281 2.71582 l 1
 22.7471 10.1484 l 1
19.8281 -1.09375 m 0
 19.4092 -1.09375 19.0322 -0.836914 18.8789 -0.447266 c 2
 4.95703 34.999 l 1
 1.01953 34.999 l 2
 0.457031 34.999 0 35.4551 0 36.0186 c 0
 0 36.582 0.457031 37.0391 1.01953 37.0391 c 2
 13.9863 37.0391 l 2
 14.4092 37.0391 14.791 36.7969 14.9414 36.4004 c 2
 23.8516 12.9609 l 1
 32.5078 34.999 l 1
 24.71 34.999 l 2
 24.1465 34.999 23.6895 35.4551 23.6895 36.0186 c 0
 23.6895 36.582 24.1465 37.0391 24.71 37.0391 c 2
 37.8789 37.0391 l 2
 38.4414 37.0391 38.8984 36.582 38.8984 36.0186 c 0
 38.8984 35.4551 38.4414 34.999 37.8789 34.999 c 2
 34.6992 34.999 l 1
 20.7773 -0.447266 l 2
 20.624 -0.836914 20.248 -1.09375 19.8281 -1.09375 c 0
EndSplineSet
EndChar

StartChar: W
Encoding: 87 87 22
Width: 38
VWidth: 0
Flags: W
HStem: -1.09375 2.04004<15.5469 16.168 23.5479 24.6348> 34.999 2.04004<0.000333402 5.03027 7.13184 17.3737 22.807 25.3662 27.4688 33.0498 35.1514 39.069>
LayerCount: 2
Fore
SplineSet
33.0498 34.999 m 1
 27.4688 34.999 l 1
 21.1133 11.4512 l 1
 23.5479 0.946289 l 1
 24.6348 0.946289 l 1
 33.0498 34.999 l 1
25.4336 -1.09375 m 2
 22.7373 -1.09375 l 2
 22.2627 -1.09375 21.8506 -0.78125 21.7432 -0.318359 c 2
 19.9805 7.26172 l 1
 17.9336 -0.318359 l 2
 17.8135 -0.763672 17.4102 -1.09375 16.9492 -1.09375 c 2
 14.748 -1.09375 l 2
 14.2793 -1.09375 13.8701 -0.774414 13.7578 -0.318359 c 2
 5.03027 34.999 l 1
 1.02051 34.999 l 2
 0.457031 34.999 0 35.4551 0 36.0186 c 0
 0 36.582 0.457031 37.0391 1.02051 37.0391 c 2
 16.3545 37.0391 l 2
 16.918 37.0391 17.374 36.582 17.374 36.0186 c 0
 17.374 35.4551 16.918 34.999 16.3545 34.999 c 2
 7.13184 34.999 l 1
 15.5469 0.946289 l 1
 16.168 0.946289 l 1
 19.0059 11.4512 l 1
 16.168 23.6494 l 2
 16.041 24.1982 16.4004 24.7461 16.9492 24.873 c 0
 17.498 25 18.0566 24.6582 18.1836 24.1094 c 2
 20.1416 15.6562 l 1
 25.3662 34.999 l 1
 23.8271 34.999 l 2
 23.2637 34.999 22.8066 35.4551 22.8066 36.0186 c 0
 22.8066 36.582 23.2637 37.0391 23.8271 37.0391 c 2
 38.0488 37.0391 l 2
 38.6123 37.0391 39.0693 36.582 39.0693 36.0186 c 0
 39.0693 35.4551 38.6123 34.999 38.0488 34.999 c 2
 35.1514 34.999 l 1
 26.4238 -0.318359 l 2
 26.3105 -0.774414 25.9023 -1.09375 25.4336 -1.09375 c 2
EndSplineSet
EndChar

StartChar: X
Encoding: 88 88 23
Width: 38
VWidth: 0
Flags: W
HStem: -0.880859 2.04004<0.079435 6.74805 9.07031 15.4287 25.955 31.0361 33.3584 38.9181> 35.0908 2.04004<0.000333402 12.4209 27.5488 38.9499>
LayerCount: 2
Fore
SplineSet
9.07031 1.15918 m 1
 15.4287 1.15918 l 1
 23.165 15.3633 l 1
 19.9854 21.2012 l 1
 9.07031 1.15918 l 1
37.9297 -1.13086 m 2
 26.9434 -1.13086 l 2
 26.3799 -1.13086 25.9229 -0.673828 25.9229 -0.110352 c 0
 25.9229 0.453125 26.3799 0.90918 26.9434 0.90918 c 2
 31.0361 0.90918 l 1
 24.3262 13.2305 l 1
 16.9307 -0.348633 l 2
 16.752 -0.676758 16.4082 -0.880859 16.0352 -0.880859 c 2
 7.35254 -0.880859 l 1
 1.09961 -0.880859 l 2
 0.536133 -0.880859 0.0791016 -0.424805 0.0791016 0.138672 c 0
 0.0791016 0.702148 0.536133 1.15918 1.09961 1.15918 c 2
 6.74805 1.15918 l 1
 18.8242 23.334 l 1
 12.4209 35.0908 l 1
 1.02051 35.0908 l 2
 0.457031 35.0908 0 35.5469 0 36.1104 c 0
 0 36.6738 0.457031 37.1309 1.02051 37.1309 c 2
 13.0273 37.1309 l 2
 13.4004 37.1309 13.7441 36.9268 13.9229 36.5986 c 2
 19.9854 25.4658 l 1
 26.0479 36.5986 l 2
 26.2266 36.9268 26.5693 37.1309 26.9434 37.1309 c 2
 37.9297 37.1309 l 2
 38.4932 37.1309 38.9502 36.6738 38.9502 36.1104 c 0
 38.9502 35.5469 38.4932 35.0908 37.9297 35.0908 c 2
 27.5488 35.0908 l 1
 21.1465 23.334 l 1
 33.3584 0.90918 l 1
 37.9297 0.90918 l 2
 38.4932 0.90918 38.9502 0.453125 38.9502 -0.110352 c 0
 38.9502 -0.673828 38.4932 -1.13086 37.9297 -1.13086 c 2
EndSplineSet
EndChar

StartChar: Y
Encoding: 89 89 24
Width: 38
VWidth: 0
Flags: W
HStem: -1.13086 2.04004<0.000333402 2.65137 4.97559 11.4014> 35.0908 2.04004<0.000333402 5.59082 7.91406 13.026 23.6572 30.0166 32.3389 38.9499>
LayerCount: 2
Fore
SplineSet
4.97559 0.90918 m 1
 11.4014 0.90918 l 1
 17.8037 12.665 l 1
 14.6084 18.5332 l 1
 4.97559 0.90918 l 1
30.0166 35.0908 m 1
 26.0947 35.0908 l 1
 23.6572 35.0908 l 1
 15.7715 20.6611 l 1
 18.9648 14.7979 l 1
 30.0166 35.0908 l 1
32.3389 35.0908 m 1
 12.9023 -0.599609 l 2
 12.7236 -0.927734 12.3799 -1.13086 12.0068 -1.13086 c 2
 3.25586 -1.13086 l 1
 1.02051 -1.13086 l 2
 0.457031 -1.13086 0 -0.673828 0 -0.110352 c 0
 0 0.453125 0.457031 0.90918 1.02051 0.90918 c 2
 2.65137 0.90918 l 1
 13.4492 20.6611 l 1
 5.59082 35.0908 l 1
 1.02051 35.0908 l 2
 0.457031 35.0908 0 35.5469 0 36.1104 c 0
 0 36.6738 0.457031 37.1309 1.02051 37.1309 c 2
 12.0068 37.1309 l 2
 12.5703 37.1309 13.0264 36.6738 13.0264 36.1104 c 0
 13.0264 35.5469 12.5703 35.0908 12.0068 35.0908 c 2
 7.91406 35.0908 l 1
 14.6084 22.79 l 1
 22.1562 36.5879 l 2
 22.335 36.9141 22.6758 37.1309 23.0479 37.1309 c 2
 26.0947 37.1309 l 1
 37.9297 37.1309 l 2
 38.4932 37.1309 38.9502 36.6738 38.9502 36.1104 c 0
 38.9502 35.5469 38.4932 35.0908 37.9297 35.0908 c 2
 32.3389 35.0908 l 1
EndSplineSet
EndChar

StartChar: Z
Encoding: 90 90 25
Width: 38
VWidth: 0
Flags: W
HStem: -0.853516 2.04004<2.04004 11.041 13.082 37.0205> 35.3682 2.04004<2.04004 27.7773>
VStem: 0 2.04004<1.18652 5.89258 27.7054 35.3682> 11.041 2.04102<1.18652 5.89258> 37.0205 2.04004<1.18652 12.3297>
LayerCount: 2
Fore
SplineSet
13.082 1.18652 m 1
 37.0205 1.18652 l 1
 37.0205 11.3096 l 2
 37.0205 11.873 37.4766 12.3301 38.04 12.3301 c 0
 38.6035 12.3301 39.0605 11.873 39.0605 11.3096 c 2
 39.0605 0.166016 l 2
 39.0605 -0.397461 38.6035 -0.853516 38.04 -0.853516 c 2
 12.0781 -0.853516 l 1
 1.02051 -0.853516 l 2
 0.457031 -0.853516 0 -0.396484 0 0.166016 c 2
 0 6.30273 l 2
 0 6.56836 0.103516 6.8125 0.287109 7.00195 c 2
 27.7773 35.3682 l 1
 2.04004 35.3682 l 1
 2.04004 28.7246 l 2
 2.04004 28.1621 1.58301 27.7051 1.02051 27.7051 c 0
 0.457031 27.7051 0 28.1621 0 28.7246 c 2
 0 36.3877 l 6
 0 36.9512 0.457031 37.4082 1.02051 37.4082 c 6
 30.1875 37.4082 l 2
 30.5977 37.4082 30.9668 37.1631 31.127 36.7852 c 0
 31.2861 36.4082 31.2051 35.9717 30.9199 35.6777 c 2
 2.04004 5.89258 l 1
 2.04004 1.18652 l 1
 11.041 1.18652 l 1
 11.041 6.30273 l 2
 11.041 6.5625 11.1377 6.81152 11.3145 7.00195 c 2
 34.417 31.7861 l 2
 34.8018 32.1973 35.4473 32.2207 35.8594 31.8359 c 0
 36.2705 31.4521 36.2939 30.8066 35.9092 30.3945 c 2
 13.082 5.89258 l 1
 13.082 1.18652 l 1
EndSplineSet
EndChar

StartChar: a
Encoding: 97 97 26
Width: 38
VWidth: 0
Flags: W
HStem: -0.959961 2.04004<10.6016 20.6852 31.585 38.8307> 28.2871 2.04<10.6018 20.6854>
VStem: 0 2.04004<9.6418 19.7255> 29.5449 2.0401<1.48828 7.49316 10.3252 19.042 21.874 30.1716>
LayerCount: 2
Fore
SplineSet
37.9004 -0.551758 m 2
 29.5449 -0.551758 l 1
 29.5449 7.49316 l 2
 28.8135 6.08301 27.8604 4.77832 26.7051 3.62207 c 0
 23.75 0.666992 19.8213 -0.959961 15.6436 -0.959961 c 0
 11.4648 -0.959961 7.53613 0.666992 4.58203 3.62207 c 0
 1.62695 6.57715 0 10.5049 0 14.6836 c 0
 0 18.8623 1.62695 22.791 4.58203 25.7451 c 0
 7.53711 28.6992 11.4648 30.3271 15.6436 30.3271 c 0
 19.8223 30.3271 23.75 28.7002 26.7051 25.7451 c 0
 27.8604 24.5898 28.8135 23.2852 29.5449 21.874 c 2
 29.5449 29.1523 l 2
 29.5449 29.7148 30.002 30.1719 30.5654 30.1719 c 0
 31.1279 30.1719 31.585 29.7148 31.585 29.1523 c 2
 31.585 1.48828 l 1
 37.9004 1.48828 l 2
 38.4639 1.48828 38.9209 1.03125 38.9209 0.467773 c 0
 38.9209 -0.0957031 38.4639 -0.551758 37.9004 -0.551758 c 2
15.6436 28.2871 m 0
 8.14258 28.2871 2.04004 22.1846 2.04004 14.6836 c 0
 2.04004 7.18262 8.14258 1.08008 15.6436 1.08008 c 0
 23.1445 1.08008 29.2471 7.18262 29.2471 14.6836 c 0
 29.2471 22.1846 23.1445 28.2871 15.6436 28.2871 c 0
EndSplineSet
EndChar

StartChar: b
Encoding: 98 98 27
Width: 38
VWidth: 0
Flags: W
HStem: -0.959961 2.04004<0.0901692 7.33594 18.3139 28.3975> 28.2871 2.04<18.3139 28.3977> 38.5684 2.04<0.0725983 7.33594>
VStem: 7.33594 2.41601<1.48828 7.64551 9.09043 20.2768 21.7217 38.5684> 36.959 2.04<9.6418 19.7255>
LayerCount: 2
Fore
SplineSet
9.37598 -0.551758 m 1
 1.02051 -0.551758 l 2
 0.457031 -0.551758 0 -0.0957031 0 0.467773 c 0
 0 1.03125 0.457031 1.48828 1.02051 1.48828 c 2
 7.33594 1.48828 l 1
 7.33594 38.5684 l 1
 1.0918 38.5684 l 2
 0.52832 38.5684 0.0722656 39.0244 0.0722656 39.5879 c 0
 0.0722656 40.1514 0.52832 40.6084 1.0918 40.6084 c 2
 9.37598 40.6084 l 1
 9.37598 21.7217 l 2
 10.1172 23.1904 11.0967 24.5479 12.2939 25.7451 c 0
 15.249 28.7002 19.1777 30.3271 23.3555 30.3271 c 0
 27.5342 30.3271 31.4629 28.7002 34.418 25.7451 c 0
 37.3721 22.791 38.999 18.8623 38.999 14.6836 c 0
 38.999 10.5049 37.3721 6.57715 34.418 3.62207 c 0
 31.4629 0.666992 27.5342 -0.959961 23.3555 -0.959961 c 0
 19.1777 -0.959961 15.249 0.666992 12.2939 3.62207 c 0
 11.0967 4.81934 10.1172 6.17676 9.37598 7.64551 c 2
 9.37598 -0.551758 l 1
23.3555 28.2871 m 0
 15.8545 28.2871 9.75195 22.1846 9.75195 14.6836 c 0
 9.75195 7.18262 15.8545 1.08008 23.3555 1.08008 c 0
 30.8564 1.08008 36.959 7.18262 36.959 14.6836 c 0
 36.959 22.1846 30.8574 28.2871 23.3555 28.2871 c 0
EndSplineSet
EndChar

StartChar: c
Encoding: 99 99 28
Width: 38
VWidth: 0
Flags: W
HStem: -0.959961 2.04004<15.2932 25.4491> 4.08887 2.04004<0.000332695 7.26855> 23.8164 2.04004<30.323 38.9899> 28.2871 2.04004<15.2934 25.4186>
VStem: 4.72852 2.03906<9.57712 19.7618>
LayerCount: 2
Fore
SplineSet
37.9707 23.8164 m 2
 30.9512 23.8164 l 2
 30.6592 23.8164 30.3955 23.9385 30.21 24.1357 c 0
 30.1318 24.1797 30.0576 24.2354 29.9902 24.3027 c 0
 27.4209 26.8721 24.0049 28.2871 20.3711 28.2871 c 0
 16.7383 28.2871 13.3213 26.8721 10.752 24.3027 c 0
 8.18262 21.7334 6.76758 18.3174 6.76758 14.6836 c 0
 6.76758 11.0498 8.18262 7.63379 10.752 5.06445 c 0
 13.3213 2.49512 16.7383 1.08008 20.3711 1.08008 c 0
 24.0049 1.08008 27.4209 2.49512 29.9902 5.06445 c 0
 30.3887 5.46289 31.0352 5.46289 31.4336 5.06445 c 0
 31.8311 4.66602 31.8311 4.02051 31.4336 3.62207 c 0
 28.4785 0.666992 24.5488 -0.959961 20.3711 -0.959961 c 0
 16.1924 -0.959961 12.2646 0.666992 9.30957 3.62207 c 2
 8.86133 4.08887 l 1
 1.01953 4.08887 l 2
 0.456055 4.08887 0 4.5459 0 5.10938 c 0
 0 5.67285 0.456055 6.12891 1.01953 6.12891 c 2
 7.26855 6.12891 l 1
 5.61523 8.65039 4.72852 11.5986 4.72852 14.6836 c 0
 4.72852 18.8623 6.35547 22.791 9.30957 25.7451 c 0
 12.2646 28.7002 16.1934 30.3271 20.3711 30.3271 c 0
 24.4971 30.3271 28.3789 28.7412 31.3213 25.8564 c 1
 37.9707 25.8564 l 2
 38.5342 25.8564 38.9902 25.3994 38.9902 24.8359 c 0
 38.9902 24.2725 38.5342 23.8164 37.9707 23.8164 c 2
EndSplineSet
EndChar

StartChar: d
Encoding: 100 100 29
Width: 38
VWidth: 0
Flags: W
HStem: -0.959961 2.04004<10.602 20.6858 31.6055 38.8512> 28.2871 2.04004<10.602 20.6857> 38.5684 2.04004<31.6055 38.8688>
VStem: 0 2.04004<9.6418 19.7255> 29.248 2.35742<1.48828 7.53125 9.39357 19.9736 21.8359 38.5684>
LayerCount: 2
Fore
SplineSet
37.9209 -0.551758 m 2
 29.5654 -0.551758 l 1
 29.5654 7.53125 l 2
 28.8311 6.10645 27.8721 4.78809 26.7061 3.62207 c 0
 23.751 0.666992 19.8223 -0.959961 15.6436 -0.959961 c 0
 11.4658 -0.959961 7.53711 0.666992 4.58203 3.62207 c 0
 1.62793 6.57715 0 10.5049 0 14.6836 c 0
 0 18.8623 1.62793 22.791 4.58203 25.7451 c 0
 7.53711 28.7002 11.4658 30.3271 15.6436 30.3271 c 0
 19.8223 30.3271 23.751 28.7002 26.7061 25.7451 c 0
 27.8721 24.5791 28.8311 23.2607 29.5654 21.8359 c 2
 29.5654 40.6084 l 1
 37.8496 40.6084 l 2
 38.4131 40.6084 38.8691 40.1514 38.8691 39.5879 c 0
 38.8691 39.0244 38.4131 38.5684 37.8496 38.5684 c 2
 31.6055 38.5684 l 1
 31.6055 1.48828 l 1
 37.9209 1.48828 l 2
 38.4844 1.48828 38.9414 1.03125 38.9414 0.467773 c 0
 38.9414 -0.0957031 38.4844 -0.551758 37.9209 -0.551758 c 2
15.6436 28.2871 m 0
 8.14258 28.2871 2.04004 22.1846 2.04004 14.6836 c 0
 2.04004 7.18262 8.14258 1.08008 15.6436 1.08008 c 0
 23.1455 1.08008 29.248 7.18262 29.248 14.6836 c 0
 29.2471 22.1846 23.1455 28.2871 15.6436 28.2871 c 0
EndSplineSet
EndChar

StartChar: e
Encoding: 101 101 30
Width: 38
VWidth: 0
Flags: W
HStem: -0.959961 2.04004<14.5639 24.6933> 16.9805 2.039<0.000333402 4.12793 6.70996 32.5059 34.3156 38.947> 28.2871 2.04<14.539 24.6716>
VStem: 3.96191 2.04004<9.6418 16.9805>
LayerCount: 2
Fore
SplineSet
19.6055 -0.959961 m 0
 15.4277 -0.959961 11.499 0.666992 8.54395 3.62207 c 0
 5.58984 6.57715 3.96191 10.5049 3.96191 14.6836 c 0
 3.96191 15.459 4.01758 16.2266 4.12793 16.9805 c 2
 1.02051 16.9805 l 2
 0.457031 16.9805 0 17.4365 0 18 c 0
 0 18.5635 0.457031 19.0195 1.02051 19.0195 c 2
 4.56738 19.0195 l 1
 5.28906 21.5361 6.6416 23.8428 8.54395 25.7451 c 0
 11.499 28.7002 15.4277 30.3271 19.6055 30.3271 c 0
 21.4199 30.3271 23.1982 30.0195 24.8916 29.4121 c 0
 26.5273 28.8242 28.0459 27.9717 29.4062 26.8779 c 0
 31.916 24.8594 33.7529 22.0918 34.6406 19.0195 c 1
 37.9277 19.0195 l 2
 38.4912 19.0195 38.9473 18.5635 38.9473 18 c 0
 38.9473 17.4365 38.4912 16.9805 37.9277 16.9805 c 2
 34.082 16.9805 l 2
 34.0088 16.9639 33.9346 16.9551 33.8623 16.9551 c 0
 33.7871 16.9551 33.7139 16.9639 33.6416 16.9805 c 2
 6.19629 16.9805 l 2
 6.06836 16.2334 6.00195 15.4658 6.00195 14.6836 c 0
 6.00195 7.18262 12.1045 1.08008 19.6055 1.08008 c 0
 23.4619 1.08008 27.1523 2.72656 29.7314 5.59863 c 0
 30.1074 6.01758 30.752 6.05273 31.1719 5.67578 c 0
 31.5908 5.2998 31.625 4.6543 31.249 4.23535 c 0
 29.7959 2.61719 28.0596 1.34082 26.0879 0.442383 c 0
 24.0469 -0.488281 21.8662 -0.959961 19.6055 -0.959961 c 0
6.70996 19.0195 m 1
 32.5059 19.0195 l 1
 30.668 24.5361 25.5352 28.2871 19.6055 28.2871 c 0
 13.6201 28.2871 8.52441 24.4014 6.70996 19.0195 c 1
EndSplineSet
EndChar

StartChar: f
Encoding: 102 102 31
Width: 38
VWidth: 0
Flags: W
HStem: -0.535156 2.04004<0.000333402 7.95996 10 19.8601> 28.252 2.04<0.492566 7.95996 10 30.4761> 38.5684 2.04<10 39.4655>
VStem: 7.95996 2.04004<1.50488 28.248 30.292 38.5684>
LayerCount: 2
Fore
SplineSet
1.51172 28.2363 m 2
 0.949219 28.2363 0.493164 28.6914 0.492188 29.2539 c 0
 0.491211 29.8174 0.948242 30.2754 1.51172 30.2764 c 2
 7.95996 30.2881 l 1
 7.95996 40.6084 l 1
 38.4453 40.6084 l 2
 39.0088 40.6084 39.4658 40.1514 39.4658 39.5879 c 0
 39.4658 39.0244 39.0088 38.5684 38.4453 38.5684 c 2
 10 38.5684 l 1
 10 30.292 l 1
 29.458 30.3271 l 2
 30.0205 30.3271 30.4766 29.8721 30.4775 29.3096 c 0
 30.4785 28.7461 30.0205 28.2881 29.458 28.2871 c 2
 10 28.252 l 1
 10 1.50488 l 1
 18.8398 1.50488 l 2
 19.4033 1.50488 19.8604 1.03027 19.8604 0.467773 c 0
 19.8604 -0.0957031 19.4033 -0.535156 18.8398 -0.535156 c 2
 8.97949 -0.535156 l 1
 1.02051 -0.535156 l 2
 0.457031 -0.535156 0 -0.0957031 0 0.467773 c 0
 0 1.03027 0.457031 1.50488 1.02051 1.50488 c 2
 7.95996 1.50488 l 1
 7.95996 28.248 l 1
 1.51172 28.2363 l 2
EndSplineSet
EndChar

StartChar: g
Encoding: 103 103 32
Width: 38
VWidth: 0
Flags: W
HStem: -12 2.04004<10.1165 29.5029> -0.959961 2.04004<10.6016 20.6855> 28.2871 2.04004<10.6018 20.6854 31.542 38.8922>
VStem: 0 2.04004<9.6418 19.7255> 29.5029 2.03906<-9.95996 7.41211 10.3252 19.042 21.9551 28.2031>
LayerCount: 2
Fore
SplineSet
31.542 -12 m 1
 11.1367 -12 l 2
 10.5732 -12 10.1162 -11.543 10.1162 -10.9795 c 0
 10.1162 -10.416 10.5732 -9.95996 11.1367 -9.95996 c 2
 29.5029 -9.95996 l 1
 29.5029 7.41211 l 2
 28.7773 6.0332 27.8389 4.75586 26.7051 3.62207 c 0
 23.751 0.666992 19.8223 -0.959961 15.6436 -0.959961 c 0
 11.4648 -0.959961 7.53613 0.666992 4.58203 3.62207 c 0
 1.62695 6.57715 0 10.5049 0 14.6836 c 0
 0 18.8623 1.62695 22.791 4.58203 25.7451 c 0
 7.53711 28.6992 11.4648 30.3271 15.6436 30.3271 c 0
 19.8223 30.3271 23.75 28.6992 26.7051 25.7451 c 0
 27.8389 24.6113 28.7773 23.334 29.5029 21.9551 c 2
 29.5029 30.2432 l 1
 37.877 30.2432 l 2
 38.4404 30.2432 38.8975 29.7871 38.8975 29.2236 c 0
 38.8975 28.6602 38.4404 28.2031 37.877 28.2031 c 2
 31.542 28.2031 l 1
 31.542 -12 l 1
15.6436 28.2871 m 0
 8.14258 28.2871 2.04004 22.1846 2.04004 14.6836 c 0
 2.04004 7.18262 8.14258 1.08008 15.6436 1.08008 c 0
 23.1445 1.08008 29.2471 7.18262 29.2471 14.6836 c 0
 29.2471 22.1846 23.1445 28.2871 15.6436 28.2871 c 0
EndSplineSet
EndChar

StartChar: h
Encoding: 104 104 33
Width: 38
VWidth: 0
Flags: W
HStem: -0.517578 2.03906<0.00132826 7.33594 19.2903 28.5547 30.5654 38.9626> 28.4473 2.04<9.37598 19.6411> 38.5684 2.04<0.0725983 7.33594>
VStem: 7.33594 2.04004<1.48828 28.4512 30.4834 38.5684> 28.54 2.0401<1.52409 19.7703>
LayerCount: 2
Fore
SplineSet
37.9434 -0.517578 m 2
 20.3105 -0.517578 l 2
 19.7471 -0.517578 19.29 -0.0615234 19.29 0.501953 c 0
 19.29 1.06543 19.7471 1.52148 20.3105 1.52148 c 2
 28.5547 1.52148 l 2
 28.5449 1.57715 28.54 1.63379 28.54 1.69238 c 2
 28.54 14.8438 l 2
 28.54 22.3447 22.2402 28.4473 14.4971 28.4473 c 2
 9.46094 28.4473 l 2
 9.43262 28.4473 9.4043 28.4512 9.37598 28.4512 c 2
 9.37598 -0.551758 l 1
 1.02051 -0.551758 l 2
 0.457031 -0.551758 0 -0.0957031 0 0.467773 c 0
 0 1.03125 0.457031 1.48828 1.02051 1.48828 c 2
 7.33594 1.48828 l 1
 7.33594 38.5684 l 1
 1.0918 38.5684 l 2
 0.52832 38.5684 0.0722656 39.0244 0.0722656 39.5879 c 0
 0.0722656 40.1514 0.52832 40.6084 1.0918 40.6084 c 2
 9.37598 40.6084 l 1
 9.37598 30.4834 l 2
 9.4043 30.4834 9.43262 30.4873 9.46094 30.4873 c 2
 14.4971 30.4873 l 2
 18.7871 30.4873 22.8223 28.8643 25.8584 25.916 c 0
 28.9033 22.9609 30.5801 19.0283 30.5801 14.8438 c 2
 30.5801 1.69238 l 2
 30.5801 1.63379 30.5752 1.57715 30.5654 1.52148 c 2
 37.9434 1.52148 l 2
 38.5059 1.52148 38.9629 1.06543 38.9629 0.501953 c 0
 38.9629 -0.0615234 38.5059 -0.517578 37.9434 -0.517578 c 2
EndSplineSet
EndChar

StartChar: k
Encoding: 107 107 36
Width: 38
VWidth: 0
Flags: W
HStem: -0.551758 2.04004<0.000333402 7.33594 19.1399 23.8994 26.7764 38.9987> 28.251 2.04<11.9232 17.8369 20.7324 27.1188> 38.5684 2.04<0.0725983 7.33594>
VStem: 7.33594 2.04004<1.48828 16.1016 19.8887 38.5684>
LayerCount: 2
Fore
SplineSet
37.9795 -0.551758 m 2
 20.1592 -0.551758 l 2
 19.5957 -0.551758 19.1396 -0.0957031 19.1396 0.467773 c 0
 19.1396 1.03125 19.5957 1.48828 20.1592 1.48828 c 2
 23.8994 1.48828 l 1
 9.37598 16.1016 l 1
 9.37598 -0.551758 l 1
 1.02051 -0.551758 l 2
 0.457031 -0.551758 0 -0.0957031 0 0.467773 c 0
 0 1.03125 0.457031 1.48828 1.02051 1.48828 c 2
 7.33594 1.48828 l 1
 7.33594 38.5684 l 1
 1.0918 38.5684 l 2
 0.52832 38.5684 0.0722656 39.0244 0.0722656 39.5879 c 0
 0.0722656 40.1514 0.52832 40.6084 1.0918 40.6084 c 2
 9.37598 40.6084 l 1
 9.37598 19.8887 l 1
 17.8369 28.251 l 1
 12.9424 28.251 l 2
 12.3789 28.251 11.9229 28.708 11.9229 29.2715 c 0
 11.9229 29.834 12.3789 30.291 12.9424 30.291 c 2
 26.0986 30.291 l 2
 26.6621 30.291 27.1191 29.834 27.1191 29.2715 c 0
 27.1191 28.708 26.6621 28.251 26.0986 28.251 c 2
 20.7324 28.251 l 1
 10.3691 17.9961 l 1
 26.7764 1.48828 l 1
 37.9795 1.48828 l 2
 38.543 1.48828 38.999 1.03125 38.999 0.467773 c 0
 38.999 -0.0957031 38.543 -0.551758 37.9795 -0.551758 c 2
EndSplineSet
EndChar

StartChar: l
Encoding: 108 108 37
Width: 38
VWidth: 0
Flags: W
HStem: -0.551758 2.04004<0.000332696 18.3789 20.4189 38.8737> 38.5684 2.04<11.1155 18.3789>
VStem: 18.3789 2.04<1.48828 38.5684>
LayerCount: 2
Fore
SplineSet
20.4189 1.48828 m 1
 37.8535 1.48828 l 2
 38.417 1.48828 38.874 1.03125 38.874 0.467773 c 0
 38.874 -0.0957031 38.417 -0.551758 37.8535 -0.551758 c 2
 19.3984 -0.551758 l 1
 1.01953 -0.551758 l 2
 0.456055 -0.551758 0 -0.0957031 0 0.467773 c 0
 0 1.03125 0.456055 1.48828 1.01953 1.48828 c 2
 18.3789 1.48828 l 1
 18.3789 38.5684 l 1
 12.1348 38.5684 l 2
 11.5713 38.5684 11.1152 39.0244 11.1152 39.5879 c 0
 11.1152 40.1514 11.5713 40.6084 12.1348 40.6084 c 2
 20.4189 40.6084 l 1
 20.4189 1.48828 l 1
EndSplineSet
EndChar

StartChar: m
Encoding: 109 109 38
Width: 38
VWidth: 0
Flags: W
HStem: -0.959961 2.04004<0.0899991 7.33496 19.2904 22.3984 24.4385 32.4209 34.4609 39.1491> 28.21 2.04004<0.0716225 7.33496 9.375 13.5817 17.3597 23.522>
VStem: 7.33496 2.04004<1.48828 28.1748> 22.3984 2.04004<1.08008 19.5322> 32.4209 2.04004<1.08008 19.5659>
LayerCount: 2
Fore
SplineSet
38.1299 -0.959961 m 2
 20.3096 -0.959961 l 2
 19.7461 -0.959961 19.29 -0.50293 19.29 0.0605469 c 0
 19.29 0.623047 19.7461 1.08008 20.3096 1.08008 c 2
 22.3984 1.08008 l 1
 22.3984 14.6064 l 2
 22.3984 21.7754 16.6445 27.667 9.375 28.1748 c 1
 9.375 0.467773 l 2
 9.375 -0.0957031 8.91895 -0.551758 8.35547 -0.551758 c 2
 1.01953 -0.551758 l 2
 0.456055 -0.551758 0 -0.0957031 0 0.467773 c 0
 0 1.03125 0.456055 1.48828 1.01953 1.48828 c 2
 7.33496 1.48828 l 1
 7.33496 28.21 l 1
 1.0918 28.21 l 2
 0.52832 28.21 0.0712891 28.667 0.0712891 29.2305 c 0
 0.0712891 29.793 0.52832 30.25 1.0918 30.25 c 2
 8.35547 30.25 l 2
 12.6455 30.25 16.6807 28.626 19.7168 25.6777 c 0
 22.7617 22.7227 24.4385 18.79 24.4385 14.6064 c 2
 24.4385 1.08008 l 1
 32.4209 1.08008 l 1
 32.4209 14.6396 l 2
 32.4209 22.1406 26.1211 28.2432 18.3779 28.2432 c 0
 17.8145 28.2432 17.3584 28.7002 17.3584 29.2637 c 0
 17.3584 29.8271 17.8145 30.2832 18.3779 30.2832 c 0
 22.668 30.2832 26.7031 28.6602 29.7402 25.7119 c 0
 32.7842 22.7559 34.4609 18.8242 34.4609 14.6396 c 2
 34.4609 1.08008 l 1
 38.1299 1.08008 l 2
 38.6934 1.08008 39.1494 0.623047 39.1494 0.0605469 c 0
 39.1494 -0.50293 38.6934 -0.959961 38.1299 -0.959961 c 2
EndSplineSet
EndChar

StartChar: n
Encoding: 110 110 39
Width: 38
VWidth: 0
Flags: W
HStem: -0.551758 2.04004<0.000332696 7.33496 19.2894 32.4209 34.4609 39.1491> 28.21 2.04<0.0716225 7.33496 9.375 23.5219>
VStem: 7.33496 2.04004<1.48828 28.21> 32.4209 2.04<1.48828 19.4815>
LayerCount: 2
Fore
SplineSet
38.1299 -0.551758 m 2
 20.3096 -0.551758 l 2
 19.7461 -0.551758 19.2891 -0.0957031 19.2891 0.467773 c 0
 19.2891 1.03125 19.7461 1.48828 20.3096 1.48828 c 2
 32.4209 1.48828 l 1
 32.4209 14.4365 l 2
 32.4209 22.0303 26.1211 28.21 18.3779 28.21 c 2
 9.375 28.21 l 1
 9.375 -0.551758 l 1
 1.01953 -0.551758 l 2
 0.456055 -0.551758 0 -0.0957031 0 0.467773 c 0
 0 1.03125 0.456055 1.48828 1.01953 1.48828 c 2
 7.33496 1.48828 l 1
 7.33496 28.21 l 1
 1.0918 28.21 l 2
 0.52832 28.21 0.0712891 28.667 0.0712891 29.2305 c 0
 0.0712891 29.793 0.52832 30.25 1.0918 30.25 c 2
 8.35547 30.25 l 1
 9.375 30.25 l 1
 18.3779 30.25 l 2
 22.6602 30.25 26.6973 28.5938 29.7451 25.5869 c 0
 31.2217 24.1309 32.3818 22.4395 33.1934 20.5586 c 0
 34.0342 18.6113 34.4609 16.5518 34.4609 14.4365 c 2
 34.4609 1.48828 l 1
 38.1299 1.48828 l 2
 38.6924 1.48828 39.1494 1.03125 39.1494 0.467773 c 0
 39.1494 -0.0957031 38.6924 -0.551758 38.1299 -0.551758 c 2
EndSplineSet
EndChar

StartChar: o
Encoding: 111 111 40
Width: 38
VWidth: 0
Flags: W
HStem: -0.551758 2.04004<0.000333402 12.1045 14.9181 24.0331 26.8467 38.9372> 28.2168 2.04<0.000333402 11.8877 14.6151 24.336 27.0635 38.9372>
VStem: 4.16699 2.04004<9.98756 19.8392> 32.7441 2.0401<9.98755 19.8392>
LayerCount: 2
Fore
SplineSet
19.4756 28.1816 m 0
 12.1592 28.1816 6.20703 22.2295 6.20703 14.9131 c 0
 6.20703 7.59766 12.1592 1.64453 19.4756 1.64453 c 0
 26.792 1.64453 32.7441 7.59766 32.7441 14.9131 c 0
 32.7441 22.2295 26.792 28.1816 19.4756 28.1816 c 0
37.918 -0.551758 m 2
 1.02051 -0.551758 l 2
 0.457031 -0.551758 0 -0.0957031 0 0.467773 c 0
 0 1.03125 0.457031 1.48828 1.02051 1.48828 c 2
 12.1045 1.48828 l 2
 10.8516 2.17871 9.68945 3.0498 8.65039 4.08887 c 0
 5.75977 6.98047 4.16699 10.8242 4.16699 14.9131 c 0
 4.16699 19.0029 5.75977 22.8467 8.65039 25.7383 c 0
 9.62891 26.7168 10.7178 27.5469 11.8877 28.2168 c 2
 1.02051 28.2168 l 2
 0.457031 28.2168 0 28.6738 0 29.2373 c 0
 0 29.8008 0.457031 30.2568 1.02051 30.2568 c 2
 37.918 30.2568 l 2
 38.4814 30.2568 38.9375 29.8008 38.9375 29.2373 c 0
 38.9375 28.6738 38.4814 28.2168 37.918 28.2168 c 2
 27.0635 28.2168 l 2
 28.2334 27.5469 29.3213 26.7168 30.2998 25.7383 c 0
 33.1914 22.8467 34.7842 19.0029 34.7842 14.9131 c 0
 34.7842 10.8242 33.1914 6.98047 30.2998 4.08887 c 0
 29.2607 3.0498 28.0986 2.17871 26.8467 1.48828 c 2
 37.918 1.48828 l 2
 38.4814 1.48828 38.9375 1.03125 38.9375 0.467773 c 0
 38.9375 -0.0957031 38.4814 -0.551758 37.918 -0.551758 c 2
EndSplineSet
EndChar

StartChar: p
Encoding: 112 112 41
Width: 38
VWidth: 0
Flags: W
HStem: -11.999 2.04002<0.000332696 7.5127 9.55273 19.8591> -0.779297 2.04004<18.055 28.0765> 28.2871 2.04<0.00525928 7.5127 18.055 28.0765>
VStem: 7.5127 2.04003<-9.95898 7.05957 9.82347 19.7239 22.4883 28.2002> 36.5791 2.04<9.76302 19.7845>
LayerCount: 2
Fore
SplineSet
18.8398 -11.999 m 2
 1.01953 -11.999 l 2
 0.456055 -11.999 0 -11.543 0 -10.9795 c 0
 0 -10.416 0.456055 -9.95898 1.01953 -9.95898 c 2
 7.5127 -9.95898 l 1
 7.5127 14.7734 l 1
 7.5127 28.2002 l 1
 1.01953 28.2002 l 2
 0.456055 28.2002 0 28.6562 0 29.2197 c 0
 0 29.7832 0.456055 30.2402 1.01953 30.2402 c 2
 9.55273 30.2402 l 1
 9.55273 22.4883 l 2
 10.2324 23.6748 11.0752 24.7783 12.0684 25.7715 c 0
 15.0059 28.709 18.9111 30.3271 23.0654 30.3271 c 0
 27.2207 30.3271 31.126 28.71 34.0635 25.7715 c 0
 37.001 22.834 38.6191 18.9287 38.6191 14.7734 c 0
 38.6191 10.6191 37.001 6.71387 34.0635 3.77637 c 0
 31.126 0.837891 27.2207 -0.779297 23.0654 -0.779297 c 0
 18.9111 -0.779297 15.0059 0.837891 12.0684 3.77637 c 0
 11.0752 4.76953 10.2324 5.87305 9.55273 7.05957 c 2
 9.55273 -9.95898 l 1
 18.8398 -9.95898 l 2
 19.4033 -9.95898 19.8594 -10.416 19.8594 -10.9795 c 0
 19.8594 -11.543 19.4033 -11.999 18.8398 -11.999 c 2
9.55273 14.7734 m 0
 9.55273 7.32227 15.6143 1.26074 23.0654 1.26074 c 0
 30.5176 1.26074 36.5791 7.32227 36.5791 14.7734 c 0
 36.5791 22.2256 30.5176 28.2871 23.0654 28.2871 c 0
 15.6143 28.2871 9.55273 22.2256 9.55273 14.7734 c 0
EndSplineSet
EndChar

StartChar: q
Encoding: 113 113 42
Width: 38
VWidth: 0
Flags: W
HStem: -11.999 2.04004<19.0443 29.2471 31.2871 38.9303> -0.959961 2.04004<10.6016 20.6851> 28.2871 2.04004<10.6016 20.6851 31.2871 38.9254>
VStem: 0 2.04004<9.6418 19.7255> 29.2471 2.04004<-9.95898 6.94629 9.70049 19.6667 22.4219 28.2002>
LayerCount: 2
Fore
SplineSet
37.9111 -11.999 m 2
 20.0635 -11.999 l 2
 19.5 -11.999 19.0439 -11.543 19.0439 -10.9795 c 0
 19.0439 -10.416 19.5 -9.95898 20.0635 -9.95898 c 2
 29.2471 -9.95898 l 1
 29.2471 6.94629 l 2
 28.5615 5.74414 27.71 4.62695 26.7051 3.62207 c 0
 23.75 0.666992 19.8213 -0.959961 15.6436 -0.959961 c 0
 11.4648 -0.959961 7.53613 0.666992 4.58105 3.62207 c 0
 1.62695 6.57715 0 10.5049 0 14.6836 c 0
 0 18.8623 1.62695 22.791 4.58105 25.7451 c 0
 7.53613 28.7002 11.4648 30.3271 15.6436 30.3271 c 0
 19.8213 30.3271 23.75 28.7002 26.7051 25.7451 c 0
 27.71 24.7402 28.5615 23.623 29.2471 22.4219 c 2
 29.2471 30.2402 l 1
 37.9111 30.2402 l 2
 38.4736 30.2402 38.9307 29.7832 38.9307 29.2197 c 0
 38.9307 28.6562 38.4736 28.2002 37.9111 28.2002 c 2
 31.2871 28.2002 l 1
 31.2871 14.6836 l 1
 31.2871 -9.95898 l 1
 37.9111 -9.95898 l 2
 38.4746 -9.95898 38.9307 -10.416 38.9307 -10.9795 c 0
 38.9307 -11.543 38.4746 -11.999 37.9111 -11.999 c 2
15.6436 28.2871 m 0
 8.14258 28.2871 2.04004 22.1846 2.04004 14.6836 c 0
 2.04004 7.18262 8.14258 1.08008 15.6436 1.08008 c 0
 23.1445 1.08008 29.2471 7.18262 29.2471 14.6836 c 0
 29.2471 22.1846 23.1445 28.2871 15.6436 28.2871 c 0
EndSplineSet
EndChar

StartChar: r
Encoding: 114 114 43
Width: 38
VWidth: 0
Flags: W
HStem: -0.569336 2.04004<0.000332695 7.17969 9.21973 19.9782> 16.957 2.04004<24.3314 31.917 33.8307 38.9176> 28.2607 2.04004<0.000332695 7.17969 9.21973 23.739>
VStem: 7.17969 2.04004<1.4707 28.2607> 31.917 2.05078<18.9971 21.8607>
LayerCount: 2
Fore
SplineSet
37.8984 16.957 m 2
 25.3506 16.957 l 2
 24.7871 16.957 24.3311 17.4141 24.3311 17.9766 c 0
 24.3311 18.54 24.7871 18.9971 25.3506 18.9971 c 2
 31.917 18.9971 l 1
 31.6523 21.2197 30.2314 23.417 27.9287 25.123 c 0
 25.1982 27.1455 21.6201 28.2607 17.8516 28.2607 c 2
 9.21973 28.2607 l 1
 9.21973 1.4707 l 1
 18.959 1.4707 l 2
 19.5225 1.4707 19.9785 1.01465 19.9785 0.451172 c 0
 19.9785 -0.112305 19.5225 -0.569336 18.959 -0.569336 c 2
 1.01953 -0.569336 l 2
 0.456055 -0.569336 0 -0.112305 0 0.451172 c 0
 0 1.01465 0.456055 1.4707 1.01953 1.4707 c 2
 7.17969 1.4707 l 1
 7.17969 28.2607 l 1
 1.01953 28.2607 l 2
 0.456055 28.2607 0 28.7168 0 29.2803 c 0
 0 29.8438 0.456055 30.3008 1.01953 30.3008 c 2
 17.8516 30.3008 l 2
 22.0537 30.3008 26.0645 29.0439 29.1436 26.7627 c 0
 31.9834 24.6592 33.709 21.8643 33.9678 18.9971 c 1
 37.8984 18.9971 l 2
 38.4619 18.9971 38.918 18.54 38.918 17.9766 c 0
 38.918 17.4141 38.4619 16.957 37.8984 16.957 c 2
EndSplineSet
EndChar

StartChar: s
Encoding: 115 115 44
Width: 38
VWidth: 0
Flags: W
HStem: -11.9834 2.04004<13.6686 23.7884> -0.946289 2.04004<13.7269 19.7302> 2.63965 2.04004<0.000333402 3.18101> 11.7676 2.04<34.3545 38.9128> 17.2637 2.04<17.6907 23.766> 28.2969 2.04<13.6325 23.7522>
VStem: 3.06738 2.03907<-1.32295 2.63965 9.66002 19.7734> 32.3145 2.04<-1.41804 8.73353 13.8076 19.679>
LayerCount: 2
Fore
SplineSet
18.71 -0.946289 m 0
 14.5322 -0.946289 10.6035 0.705078 7.64844 3.66016 c 0
 4.69434 6.61426 3.06738 10.5186 3.06738 14.6973 c 0
 3.06738 18.874 4.69434 22.8018 7.64844 25.7559 c 0
 10.6035 28.71 14.5322 30.3369 18.71 30.3369 c 0
 22.8887 30.3369 26.8174 28.71 29.7725 25.7559 c 0
 32.7266 22.8018 34.3545 18.874 34.3545 14.6973 c 2
 34.3545 13.8076 l 1
 37.8926 13.8076 l 2
 38.4561 13.8076 38.9131 13.3516 38.9131 12.7881 c 0
 38.9131 12.2246 38.4561 11.7676 37.8926 11.7676 c 2
 32.3145 11.7676 l 1
 32.3145 14.6973 l 2
 32.3145 22.1963 26.2119 28.2969 18.71 28.2969 c 0
 15.0771 28.2969 11.6611 26.8828 9.09082 24.3135 c 0
 6.52148 21.7441 5.10645 18.3291 5.10645 14.6973 c 0
 5.10645 7.19629 11.209 1.09375 18.71 1.09375 c 0
 19.2734 1.09375 19.7305 0.636719 19.7305 0.0732422 c 0
 19.7305 -0.489258 19.2734 -0.946289 18.71 -0.946289 c 0
18.71 -11.9834 m 0
 14.5322 -11.9834 10.6035 -10.3564 7.64844 -7.40137 c 0
 4.93555 -4.68848 3.3418 -1.1543 3.09961 2.63965 c 1
 1.02051 2.63965 l 2
 0.457031 2.63965 0 3.09668 0 3.66016 c 0
 0 4.22363 0.457031 4.67969 1.02051 4.67969 c 2
 5.10645 4.67969 l 1
 5.10645 3.66016 l 2
 5.10645 -3.84082 11.21 -9.94336 18.71 -9.94336 c 0
 22.3438 -9.94336 25.7607 -8.52832 28.3301 -5.95898 c 0
 30.8994 -3.38965 32.3145 0.0263672 32.3145 3.66016 c 0
 32.3145 7.29395 30.8994 10.71 28.3301 13.2793 c 0
 25.7607 15.8486 22.3438 17.2637 18.71 17.2637 c 0
 18.1475 17.2637 17.6904 17.7207 17.6904 18.2842 c 0
 17.6904 18.8477 18.1475 19.3037 18.71 19.3037 c 0
 22.8887 19.3037 26.8174 17.6523 29.7725 14.6973 c 0
 32.7266 11.7422 34.3545 7.83887 34.3545 3.66016 c 0
 34.3545 -0.518555 32.7266 -4.44727 29.7725 -7.40137 c 0
 26.8174 -10.3564 22.8887 -11.9834 18.71 -11.9834 c 0
EndSplineSet
EndChar

StartChar: t
Encoding: 116 116 45
Width: 38
VWidth: 0
Flags: W
HStem: -0.551758 2.04004<0.000332696 7.73828 9.77832 23.27> 20.6084 20G<8.47705 9.04053> 28.2363 2.0401<0.000332696 7.73828 9.77832 30.0017>
VStem: 7.73828 2.04004<1.48828 28.2363 30.2764 40.6081>
LayerCount: 2
Fore
SplineSet
9.77832 1.48828 m 1xb0
 21.9785 1.48828 l 5
 37.6328 6.5791 l 6
 38.1689 6.75293 38.7441 6.45996 38.9189 5.92383 c 4
 39.0928 5.38867 38.7998 4.81348 38.2637 4.63867 c 6
 22.4551 -0.501953 l 6
 22.3535 -0.535156 22.2471 -0.551758 22.1396 -0.551758 c 6
 8.75879 -0.551758 l 1
 1.01953 -0.551758 l 2
 0.456055 -0.551758 0 -0.0957031 0 0.467773 c 0
 0 1.03125 0.456055 1.48828 1.01953 1.48828 c 2
 7.73828 1.48828 l 1
 7.73828 28.2363 l 1
 1.01953 28.2363 l 2
 0.456055 28.2363 0 28.6934 0 29.2559 c 0
 0 29.8193 0.456055 30.2764 1.01953 30.2764 c 2
 7.73828 30.2764 l 1xb0
 7.73828 39.5879 l 2
 7.73828 40.1514 8.19531 40.6084 8.75879 40.6084 c 0xd0
 9.32227 40.6084 9.77832 40.1514 9.77832 39.5879 c 2
 9.77832 30.2764 l 1
 28.9814 30.2764 l 2
 29.5449 30.2764 30.002 29.8193 30.002 29.2559 c 0
 30.002 28.6934 29.5449 28.2363 28.9814 28.2363 c 2
 9.77832 28.2363 l 1
 9.77832 1.48828 l 1xb0
EndSplineSet
EndChar

StartChar: u
Encoding: 117 117 46
Width: 38
VWidth: 0
Flags: W
HStem: -0.59082 2.04004<15.5191 29.666 31.7061 38.9694> 28.2217 2.04<0.00527024 4.58008 21.6946 29.666>
VStem: 4.58008 2.04004<10.1271 28.1191> 29.666 2.0401<1.44922 28.2217>
LayerCount: 2
Fore
SplineSet
29.666 1.44922 m 1
 29.666 28.2217 l 1
 22.7148 28.2217 l 2
 22.1514 28.2217 21.6943 28.6787 21.6943 29.2422 c 0
 21.6943 29.8047 22.1514 30.2617 22.7148 30.2617 c 2
 31.7061 30.2617 l 1
 31.7061 1.44922 l 1
 37.9502 1.44922 l 2
 38.5137 1.44922 38.9697 0.992188 38.9697 0.428711 c 0
 38.9697 -0.134766 38.5137 -0.59082 37.9502 -0.59082 c 2
 30.6865 -0.59082 l 1
 29.666 -0.59082 l 1
 20.6631 -0.59082 l 2
 16.373 -0.59082 12.3379 1.0332 9.30176 3.98145 c 0
 6.25684 6.93652 4.58008 10.8691 4.58008 15.0537 c 2
 4.58008 28.1191 l 1
 1.02051 28.1191 l 2
 0.457031 28.1191 0 28.5762 0 29.1396 c 0
 0 29.7031 0.457031 30.1592 1.02051 30.1592 c 2
 6.62012 30.1592 l 1
 6.62012 15.0537 l 2
 6.62012 7.55273 12.9199 1.44922 20.6631 1.44922 c 2
 29.666 1.44922 l 1
EndSplineSet
EndChar

StartChar: v
Encoding: 118 118 47
Width: 38
VWidth: 0
Flags: W
HStem: -0.551758 21G<19.2027 19.6152> 28.2412 2.04<0.000332696 6.85742 9.06445 16.4763 22.4486 29.8086 32.0156 38.9254>
LayerCount: 2
Fore
SplineSet
19.4092 -0.551758 m 0
 18.9961 -0.551758 18.623 -0.303711 18.4658 0.078125 c 2
 6.85742 28.2412 l 1
 1.01953 28.2412 l 2
 0.456055 28.2412 0 28.6982 0 29.2607 c 0
 0 29.8242 0.456055 30.2812 1.01953 30.2812 c 2
 15.4561 30.2812 l 2
 16.0195 30.2812 16.4766 29.8242 16.4766 29.2607 c 0
 16.4766 28.6982 16.0195 28.2412 15.4561 28.2412 c 2
 9.06445 28.2412 l 1
 19.4092 3.13867 l 1
 29.8086 28.2412 l 1
 23.4688 28.2412 l 2
 22.9053 28.2412 22.4482 28.6973 22.4482 29.2607 c 0
 22.4492 29.8242 22.9062 30.2812 23.4688 30.2812 c 2
 37.9053 30.2812 l 2
 38.4678 30.2812 38.9258 29.8242 38.9258 29.2607 c 0
 38.9248 28.6982 38.4688 28.2412 37.9053 28.2412 c 2
 32.0156 28.2412 l 1
 20.3516 0.078125 l 2
 20.1934 -0.303711 19.8213 -0.551758 19.4092 -0.551758 c 0
EndSplineSet
EndChar

StartChar: w
Encoding: 119 119 48
Width: 38
VWidth: 0
Flags: W
HStem: -0.551758 21G<15.5464 15.959 24.0503 24.4629> 28.2578 2.04004<0.000333399 3.19531 5.40234 16.4762 22.4154 26.1592 28.3662 34.6631 36.8711 38.8913>
LayerCount: 2
Fore
SplineSet
24.2568 -0.551758 m 0
 23.8438 -0.551758 23.4707 -0.303711 23.3135 0.078125 c 2
 20.0127 8.08789 l 1
 16.6953 0.078125 l 2
 16.5371 -0.303711 16.165 -0.551758 15.7529 -0.551758 c 0
 15.3398 -0.551758 14.9668 -0.303711 14.8096 0.078125 c 2
 3.19531 28.2578 l 1
 1.01953 28.2578 l 2
 0.457031 28.2578 0 28.7148 0 29.2783 c 0
 0 29.8418 0.457031 30.2979 1.01953 30.2979 c 2
 15.457 30.2979 l 2
 16.0205 30.2979 16.4766 29.8418 16.4766 29.2783 c 0
 16.4766 28.7148 16.0205 28.2578 15.457 28.2578 c 2
 5.40234 28.2578 l 1
 15.7529 3.13867 l 1
 26.1592 28.2578 l 1
 23.4355 28.2578 l 2
 22.8721 28.2578 22.415 28.7148 22.415 29.2783 c 0
 22.415 29.8418 22.8721 30.2979 23.4355 30.2979 c 2
 37.8721 30.2979 l 2
 38.4355 30.2979 38.8916 29.8418 38.8916 29.2783 c 0
 38.8916 28.7148 38.4355 28.2578 37.8721 28.2578 c 2
 36.8711 28.2578 l 1
 25.1992 0.078125 l 2
 25.041 -0.303711 24.6689 -0.551758 24.2568 -0.551758 c 0
21.1182 10.7578 m 1
 24.2568 3.13867 l 1
 34.6631 28.2578 l 1
 28.3662 28.2578 l 1
 21.1182 10.7578 l 1
EndSplineSet
EndChar

StartChar: x
Encoding: 120 120 49
Width: 38
VWidth: 0
Flags: W
HStem: -0.620117 2.04004<0.000333402 4.39551 7.1709 14.7575 24.2708 32.7959 35.5713 39.028> 28.082 2.0401<0.0852943 9.12402 11.7988 14.8425 24.2708 28.1553 30.8281 39.028>
LayerCount: 2
Fore
SplineSet
38.0078 -0.620117 m 2
 25.29 -0.620117 l 2
 24.7275 -0.620117 24.2705 -0.164062 24.2705 0.399414 c 0
 24.2705 0.962891 24.7275 1.41992 25.29 1.41992 c 2
 32.7959 1.41992 l 1
 19.9834 15.2734 l 1
 7.1709 1.41992 l 1
 13.7373 1.41992 l 2
 14.3008 1.41992 14.7578 0.962891 14.7578 0.399414 c 0
 14.7578 -0.164062 14.3008 -0.620117 13.7373 -0.620117 c 2
 1.02051 -0.620117 l 2
 0.457031 -0.620117 0 -0.164062 0 0.399414 c 0
 0 0.962891 0.457031 1.41992 1.02051 1.41992 c 2
 4.39551 1.41992 l 1
 18.623 16.8779 l 1
 9.12402 28.082 l 1
 1.10547 28.082 l 2
 0.541992 28.082 0.0849609 28.5381 0.0849609 29.1016 c 0
 0.0849609 29.665 0.541992 30.1221 1.10547 30.1221 c 2
 13.8223 30.1221 l 2
 14.3857 30.1221 14.8428 29.665 14.8428 29.1016 c 0
 14.8428 28.5381 14.3857 28.082 13.8223 28.082 c 2
 11.7988 28.082 l 1
 19.9834 18.4297 l 1
 28.1553 28.082 l 1
 25.29 28.082 l 2
 24.7275 28.082 24.2705 28.5381 24.2705 29.1016 c 0
 24.2705 29.665 24.7275 30.1221 25.29 30.1221 c 2
 38.0078 30.1221 l 2
 38.5713 30.1221 39.0283 29.665 39.0283 29.1016 c 0
 39.0283 28.5381 38.5713 28.082 38.0078 28.082 c 2
 30.8281 28.082 l 1
 21.3438 16.8789 l 1
 35.5713 1.41992 l 1
 38.0078 1.41992 l 2
 38.5713 1.41992 39.0283 0.962891 39.0283 0.399414 c 0
 39.0283 -0.164062 38.5713 -0.620117 38.0078 -0.620117 c 2
EndSplineSet
EndChar

StartChar: y
Encoding: 121 121 50
Width: 38
VWidth: 0
Flags: W
HStem: -12.2441 2.04004<3.4017 15.0869 17.2969 25.5358> 27.5977 2.04004<0.000332695 6.61523 8.8125 16.4762 22.4613 30.8291 33.0273 38.9381>
LayerCount: 2
Fore
SplineSet
24.5166 -12.2441 m 2
 4.4209 -12.2441 l 2
 3.85742 -12.2441 3.40137 -11.7871 3.40137 -11.2236 c 0
 3.40137 -10.6611 3.85742 -10.2041 4.4209 -10.2041 c 2
 15.0869 -10.2041 l 1
 18.7021 -1.52344 l 2
 18.6025 -1.42871 18.5215 -1.31152 18.4658 -1.17676 c 2
 6.61523 27.5977 l 1
 1.01953 27.5977 l 2
 0.456055 27.5977 0 28.0547 0 28.6182 c 0
 0 29.1816 0.456055 29.6377 1.01953 29.6377 c 2
 15.4561 29.6377 l 2
 16.0195 29.6377 16.4766 29.1816 16.4766 28.6182 c 0
 16.4766 28.0547 16.0195 27.5977 15.4561 27.5977 c 2
 8.8125 27.5977 l 1
 19.7637 1.02637 l 1
 30.8291 27.5977 l 1
 23.4814 27.5977 l 2
 22.918 27.5977 22.4609 28.0547 22.4609 28.6182 c 0
 22.4609 29.1816 22.918 29.6377 23.4814 29.6377 c 2
 37.918 29.6377 l 2
 38.4814 29.6377 38.9385 29.1816 38.9385 28.6182 c 0
 38.9385 28.0547 38.4814 27.5977 37.918 27.5977 c 2
 33.0273 27.5977 l 1
 17.2969 -10.2041 l 1
 24.5166 -10.2041 l 2
 25.0801 -10.2041 25.5361 -10.6611 25.5361 -11.2236 c 0
 25.5361 -11.7871 25.0801 -12.2441 24.5166 -12.2441 c 2
EndSplineSet
EndChar

StartChar: z
Encoding: 122 122 51
Width: 38
VWidth: 0
Flags: W
HStem: -0.62793 2.04004<2.04004 36.9443> 28.082 2.04004<4.57715 34.082>
VStem: 0 2.04004<1.41211 2.3623> 2.53711 2.04004<18.9622 28.082> 36.9443 2.04004<1.41211 8.23599>
LayerCount: 2
Fore
SplineSet
37.9648 -0.62793 m 2
 1.02051 -0.62793 l 2
 0.457031 -0.62793 0 -0.170898 0 0.392578 c 2
 0 2.86621 l 2
 0 3.18359 0.148438 3.48242 0.400391 3.67578 c 2
 34.082 28.082 l 1
 4.57715 28.082 l 1
 4.57715 19.9814 l 2
 4.57715 19.418 4.12012 18.9619 3.55664 18.9619 c 0
 2.99316 18.9619 2.53711 19.418 2.53711 19.9814 c 2
 2.53711 29.1016 l 2
 2.53711 29.665 2.99316 30.1221 3.55664 30.1221 c 2
 37.0908 30.1221 l 2
 37.5273 30.1221 37.916 29.8428 38.0566 29.4287 c 0
 38.1973 29.0146 38.2021 29 37.7109 28.292 c 2
 2.04004 2.3623 l 1
 2.04004 1.41211 l 1
 36.9443 1.41211 l 1
 36.9443 7.21582 l 2
 36.9443 7.7793 37.4014 8.23633 37.9648 8.23633 c 0
 38.5283 8.23633 38.9844 7.7793 38.9844 7.21582 c 2
 38.9844 0.392578 l 2
 38.9844 -0.170898 38.5283 -0.62793 37.9648 -0.62793 c 2
EndSplineSet
EndChar
